<?xml version="1.0" encoding="UTF-8" standalone="no"?>
<!-- Created with Inkscape (http://www.inkscape.org/) -->

<svg
   xmlns:dc="http://purl.org/dc/elements/1.1/"
   xmlns:cc="http://creativecommons.org/ns#"
   xmlns:rdf="http://www.w3.org/1999/02/22-rdf-syntax-ns#"
   xmlns:svg="http://www.w3.org/2000/svg"
   xmlns="http://www.w3.org/2000/svg"
   xmlns:sodipodi="http://sodipodi.sourceforge.net/DTD/sodipodi-0.dtd"
   xmlns:inkscape="http://www.inkscape.org/namespaces/inkscape"
   width="64"
   height="64"
   viewBox="0 0 16.933333 16.933334"
   version="1.1"
   id="svg8"
   inkscape:version="0.92.3 (2405546, 2018-03-11)"
   sodipodi:docname="ddss.svg"
   inkscape:export-filename="C:\Users\Martin\Source\DDSS\LOIN.Comments\ddss.png"
   inkscape:export-xdpi="96"
   inkscape:export-ydpi="96">
  <defs
     id="defs2" />
  <sodipodi:namedview
     id="base"
     pagecolor="#bdc1ba"
     bordercolor="#666666"
     borderopacity="1.0"
     inkscape:pageopacity="0.41960784"
     inkscape:pageshadow="2"
     inkscape:zoom="11.2"
     inkscape:cx="56.520871"
     inkscape:cy="76.160546"
     inkscape:document-units="mm"
     inkscape:current-layer="layer1"
     showgrid="false"
     units="px"
     inkscape:window-width="5120"
     inkscape:window-height="2755"
     inkscape:window-x="-13"
     inkscape:window-y="-13"
     inkscape:window-maximized="1" />
  <metadata
     id="metadata5">
    <rdf:RDF>
      <cc:Work
         rdf:about="">
        <dc:format>image/svg+xml</dc:format>
        <dc:type
           rdf:resource="http://purl.org/dc/dcmitype/StillImage" />
        <dc:title></dc:title>
      </cc:Work>
    </rdf:RDF>
  </metadata>
  <g
     inkscape:label="Layer 1"
     inkscape:groupmode="layer"
     id="layer1"
     transform="translate(0,-280.06665)">
    <g
       id="g958"
       transform="matrix(0.19618033,0,0,0.19618033,-14.444896,245.85961)">
      <path
         sodipodi:nodetypes="csscsccccccccccscscccsccccscccccccccccccccsccc"
         inkscape:connector-curvature="0"
         id="path945"
         d="m 103.98251,255.85581 c -4.742457,-0.19644 -7.238912,-0.17131 -12.079594,-0.95344 -4.906547,-0.79277 -8.778679,-2.35292 -11.477853,-4.14667 -1.488617,-0.98927 -2.257814,-1.93469 -2.721433,-2.86798 -0.425333,-0.85623 -0.246143,-1.37718 -0.285968,-8.43172 l -0.03543,-6.27533 0.224946,0.13628 c 0.12372,0.075 0.70603,0.43003 1.294025,0.78906 1.172043,0.71566 3.166292,1.71319 4.392194,2.19699 5.006578,1.97586 11.618023,3.31049 18.760033,3.78702 1.76108,0.11751 2.70782,-0.005 3.17068,-0.41188 0.2989,-0.26243 0.39548,-0.56944 0.39743,-1.26332 0.003,-0.94776 -0.30607,-1.37772 -1.23734,-1.72315 -0.73781,-0.27368 -1.7514,-0.412 -4.26848,-0.58253 -7.102614,-0.48116 -13.214952,-1.95262 -17.626773,-4.24339 -1.68371,-0.87423 -2.554168,-1.51347 -4.147629,-3.04588 l -0.96079,-0.92398 0.03791,-6.1496 c 0.04323,-7.01319 0.09102,-7.88629 0.424574,-7.75829 0.05548,0.0213 0.571839,0.3295 1.147474,0.6849 0.575636,0.35541 1.407425,0.83489 1.848419,1.06551 3.434416,1.79602 8.493273,3.22444 14.499373,4.09406 3.554547,0.51466 8.105532,0.88811 10.991462,0.90194 1.76358,0.008 2.00333,-0.0426 2.50933,-0.53437 0.80228,-0.77973 0.8984,-2.06821 0.19436,-2.60521 -0.65563,-0.50007 -1.84371,-0.66515 -6.2116,-0.86307 -3.17608,-0.14392 -5.0878,-0.31279 -7.617188,-0.67284 -6.864421,-0.97713 -12.527179,-2.9257 -15.510269,-5.33713 -0.325996,-0.26352 -0.975818,-0.89814 -1.444048,-1.41026 l -0.851329,-0.93112 -5.29e-4,-7.03888 -5.29e-4,-7.03888 0.283975,0.16442 c 3.498355,2.02552 5.957178,3.09438 9.422468,4.09599 11.085057,3.20401 26.254599,3.42962 37.682339,0.56043 3.78446,-0.95018 6.98218,-2.22355 9.63987,-3.8387 0.58798,-0.35734 1.20784,-0.72011 1.37747,-0.80614 l 0.30837,-0.15644 0.0434,0.38077 c 0.0694,0.60856 0.10702,4.85271 0.1774,19.99167 0.0682,14.66141 0.1651,25.39224 0.25699,28.44694 0.0694,2.30799 -0.009,2.86566 -0.56086,4.00358 -1.36747,2.81811 -4.98838,5.02626 -10.94532,6.67483 -3.8073,1.05366 -7.55699,1.95041 -12.23307,2.22859 -1.5623,0.0929 -7.22994,-0.12492 -8.86835,-0.19276 z"
         style="opacity:1;fill:#ffffff;fill-opacity:1;stroke:none;stroke-width:1.26269066;stroke-linejoin:miter;stroke-miterlimit:4;stroke-dasharray:none;stroke-opacity:1;paint-order:fill markers stroke" />
      <path
         sodipodi:nodetypes="ccccccsscccccccccccccccccccssccccscccccccccccccccccsccccccscccccccccccsccsccssccsscccccccccscccccscccccccsccccccccccccccccsccscssccccsssscccssscsccscscssccscccccccsssccss"
         inkscape:connector-curvature="0"
         id="path837"
         d="m 124.02602,259.42629 c -5.21789,-2.18906 -5.49558,-2.54951 -4.58553,-5.9521 l 0.41479,-1.55085 -1.68003,-1.58701 -1.68004,-1.58702 -1.73451,0.55467 c -2.92413,0.93511 -3.37168,0.58017 -5.41696,-4.29608 -1.63685,-3.9025 -1.71644,-4.22977 -1.23651,-5.08482 0.28212,-0.50263 1.20663,-1.32103 2.05445,-1.81866 l 1.54151,-0.90478 v -2.29305 -2.29306 l -1.54151,-0.90478 c -0.84782,-0.49763 -1.7741,-1.31917 -2.05837,-1.82565 -0.47852,-0.85254 -0.42838,-1.13878 0.67583,-3.85772 2.48756,-6.12524 2.82484,-6.43393 6.10987,-5.59201 l 1.74836,0.44809 1.60785,-1.60784 1.60784,-1.60785 -0.58549,-1.8129 c -0.8981,-2.78078 -0.41843,-3.41495 3.94668,-5.21789 5.0362,-2.08011 5.138,-2.09442 6.29771,-0.88503 0.53846,0.56153 1.23066,1.4975 1.53822,2.07993 0.53508,1.0133 0.65615,1.05771 2.8071,1.02963 l 2.24791,-0.0294 0.9199,-1.57288 c 0.50594,-0.86508 1.32747,-1.80164 1.82562,-2.08125 0.84441,-0.47395 1.1888,-0.38971 5.08761,1.24444 4.85465,2.03478 5.1723,2.43069 4.39223,5.47436 l -0.46306,1.80677 1.61821,1.61821 1.61821,1.6182 1.82575,-0.58385 c 2.82697,-0.90403 3.40114,-0.44941 5.39335,4.27038 2.20034,5.21287 2.1706,5.50598 -0.71691,7.06548 -0.94331,0.50947 -1.67543,1.04474 -1.62692,1.1895 0.0485,0.14475 0.0887,1.176 0.0892,2.29166 l 0.001,2.02847 1.67056,0.88194 c 2.54961,1.34603 2.62895,2.01042 0.77958,6.52807 -2.05455,5.01888 -2.89129,5.67418 -5.89292,4.61514 l -1.41278,-0.49845 -1.68393,1.59068 -1.68392,1.59069 0.61603,1.95427 c 0.59744,1.89532 0.59539,1.9821 -0.0682,2.87653 -0.41125,0.55435 -2.00761,1.50874 -4.00187,2.39253 -4.8471,2.14805 -5.85641,2.05966 -7.22057,-0.63237 l -0.87155,-1.71986 h -2.40993 -2.40992 l -0.63161,1.40066 c -1.34915,2.99188 -2.26425,3.15912 -6.82245,1.24682 z m 4.31593,-4.21157 c 0.50414,-0.86025 1.27328,-1.68101 1.70921,-1.8239 1.38234,-0.45311 7.61107,-0.27655 8.22522,0.23315 0.30605,0.25399 0.86557,1.06774 1.24339,1.80832 0.37782,0.74059 0.82271,1.34652 0.98865,1.34652 0.16594,0 1.21201,-0.40258 2.32459,-0.89461 1.88079,-0.83177 2.0076,-0.96187 1.8054,-1.85209 -0.75743,-3.33469 -0.86063,-3.02068 1.94739,-5.92548 1.43132,-1.48066 2.95167,-2.82695 3.37856,-2.99176 0.50611,-0.1954 1.34128,-0.10711 2.40037,0.25376 0.89332,0.30438 1.67911,0.49588 1.74622,0.42555 0.0671,-0.0703 0.52445,-1.12209 1.01633,-2.33724 l 0.89432,-2.20936 -1.36491,-0.69633 c -2.14337,-1.09346 -2.47056,-1.818 -2.46506,-5.45858 0.006,-4.19396 0.15825,-4.63127 1.97946,-5.69857 0.84893,-0.49751 1.5435,-1.10643 1.5435,-1.35316 0,-0.24673 -0.34423,-1.27692 -0.76496,-2.2893 -0.69688,-1.67688 -0.84602,-1.82173 -1.67569,-1.62753 -3.50707,0.82091 -3.30195,0.89206 -6.42155,-2.22754 -3.11735,-3.11735 -3.04337,-2.9059 -2.23669,-6.39276 0.18509,-0.80003 0.0211,-0.95567 -1.76506,-1.6757 -1.08302,-0.43656 -2.17944,-0.79375 -2.4365,-0.79375 -0.25707,0 -0.74551,0.61676 -1.08543,1.37057 -0.33992,0.75381 -1.0065,1.54756 -1.48129,1.76389 -1.08683,0.49519 -7.34815,0.51698 -8.26043,0.0288 -0.37466,-0.20051 -1.00245,-0.99426 -1.39508,-1.76389 -0.39263,-0.76963 -0.86571,-1.39932 -1.05129,-1.39932 -0.18557,0 -1.22351,0.35719 -2.30652,0.79375 -1.7862,0.72003 -1.95015,0.87567 -1.76506,1.6757 0.81453,3.52081 0.88656,3.31228 -2.21531,6.41414 -3.10519,3.10519 -2.89861,3.03462 -6.45247,2.20434 -0.60492,-0.14133 -0.98502,-0.0531 -1.10923,0.25756 -0.10393,0.25992 -0.52199,1.30869 -0.92901,2.3306 l -0.74005,1.85803 1.55311,0.75456 c 0.85421,0.41501 1.72607,1.13417 1.93747,1.59815 0.21141,0.46398 0.38437,2.30893 0.38437,4.09989 0,3.71608 -0.31973,4.43325 -2.46422,5.52729 l -1.35926,0.69344 0.92193,2.32367 c 0.80035,2.01725 1.01756,2.2939 1.64716,2.09791 0.39887,-0.12417 1.4396,-0.30301 2.31273,-0.39742 1.58222,-0.17108 1.5967,-0.1625 4.35754,2.58316 2.70205,2.68719 2.76537,2.78945 2.58014,4.16655 -0.10445,0.77646 -0.29674,1.76442 -0.42732,2.19548 -0.20731,0.68436 0.002,0.89319 1.65319,1.64679 1.03984,0.47468 2.07397,0.87606 2.29807,0.89196 0.22409,0.0159 0.81993,-0.67494 1.32407,-1.53519 z m 3.86178,-9.38218 c -3.58654,-0.71909 -6.8424,-3.26929 -8.50036,-6.65804 -0.77804,-1.59026 -0.95739,-2.44859 -0.96462,-4.61648 -0.008,-2.30502 0.14623,-2.97822 1.14489,-5.00761 1.32148,-2.68535 2.91664,-4.2344 5.7093,-5.54427 1.60652,-0.75351 2.46106,-0.91568 4.7786,-0.90685 2.46214,0.009 3.09498,0.15201 4.96005,1.11777 10.37877,5.37432 7.57409,20.30999 -4.07811,21.71697 -0.87312,0.10543 -2.24551,0.0598 -3.04975,-0.10149 z m 5.08955,-4.0655 c 5.38092,-2.24774 6.4896,-9.95162 1.93239,-13.42757 -2.36583,-1.80451 -6.37777,-2.197 -8.8628,-0.86705 -0.93991,0.50302 -3.20299,3.10154 -3.5918,4.12419 -0.55338,1.45548 -0.38042,4.76784 0.33071,6.33354 0.73827,1.62548 2.86952,3.54729 4.44753,4.01049 1.69654,0.49798 4.32654,0.41849 5.74397,-0.1736 z M 96.44792,259.07011 C 85.00001,257.50489 76.90714,253.82332 74.35061,249.0177 73.7244,247.84058 73.69375,246.34284 73.69375,216.91492 v -30.86806 l 0.96766,-1.64607 c 1.26575,-2.15318 3.13927,-3.7207 6.32186,-5.28933 3.45382,-1.70231 7.68129,-2.99914 12.81882,-3.93231 5.63137,-1.02288 19.82239,-1.0975 25.4,-0.13355 10.23148,1.76825 17.42956,5.20269 19.7186,9.40842 l 1.01422,1.86346 -0.0665,9.37627 c -0.0428,6.03895 -0.20074,26.8437 -0.44363,27.13636 -0.47487,0.57218 -2.12939,0.59129 -2.68961,0.0311 -0.29237,-0.29236 -0.42334,-19.39884 -0.42334,-23.12653 0,-2.96862 -0.0825,-5.3975 -0.18339,-5.3975 -0.10087,0 -0.84728,0.41909 -1.65869,0.93131 -12.19984,7.70142 -41.28854,7.86067 -54.80819,0.30005 l -2.26362,-1.26589 v 7.0718 7.07181 l 1.22825,1.35953 c 3.44746,3.81593 13.00941,6.58392 24.17175,6.99725 5.83655,0.21612 6.70278,0.48133 6.70278,2.0522 0,0.42492 -0.31603,1.0586 -0.7023,1.40816 -0.63183,0.5718 -1.15398,0.61093 -5.20347,0.38996 -10.40046,-0.56753 -19.19009,-2.62359 -23.99547,-5.61299 -0.72578,-0.4515 -1.51803,-0.93817 -1.76057,-1.08148 -0.34683,-0.20495 -0.44097,1.26389 -0.44097,6.88066 v 7.14123 l 1.68293,1.62213 c 3.5634,3.43466 12.04373,6.06807 21.21113,6.58673 4.26599,0.24135 5.32817,0.68186 5.32817,2.2097 0,1.66678 -0.66206,1.91921 -4.32407,1.6487 -9.22377,-0.68136 -17.36782,-2.81668 -22.20051,-5.82085 l -1.69765,-1.05531 v 6.98882 c 0,6.66931 0.0363,7.04176 0.79375,8.14696 3.1794,4.63904 17.73013,8.21402 31.19392,7.66405 5.2531,0.42232 13.75841,-1.56103 14.25129,-1.01641 0.78735,0.87002 0.68922,2.01314 -0.22798,2.65557 -0.64939,0.45486 -9.03056,2.19657 -16.72072,1.95385 -3.78888,-0.02 -8.39699,-0.24255 -10.24026,-0.49457 z m 22.93771,-62.56195 c 10.97805,-1.94546 17.59203,-5.74466 16.74159,-9.6167 -0.30204,-1.37518 -2.78208,-3.52704 -5.59868,-4.85782 -9.54491,-4.50976 -28.50084,-5.49384 -41.29162,-2.14362 -7.36602,1.92935 -11.83011,4.91952 -11.83667,7.92855 -0.006,2.96864 5.85645,6.41399 13.85291,8.14066 7.91312,1.70867 20.23179,1.94903 28.13247,0.54893 z"
         style="fill:#000000;stroke-width:0.35277781" />
      <path
         transform="scale(0.26458333)"
         inkscape:connector-curvature="0"
         id="path850"
         d="m 475.90205,968.74085 c -8.55247,-3.45941 -11.23013,-5.23182 -10.75553,-7.11932 0.83148,-3.30689 1.62464,-7.75505 1.81983,-10.20592 0.19756,-2.48074 0.12835,-3.06532 -0.51137,-4.31928 -1.64338,-3.22129 -16.80064,-18.28076 -19.9187,-19.79019 -1.48439,-0.71857 -1.96975,-0.77296 -4.91438,-0.55067 -1.79703,0.13566 -4.87519,0.55884 -6.84036,0.9404 -4.87539,0.94663 -5.01473,0.93181 -6.05187,-0.64337 -0.80406,-1.22118 -6.27894,-14.31287 -6.26537,-14.98194 0.003,-0.15725 1.88072,-1.2502 4.1723,-2.42877 5.10921,-2.6277 7.49691,-4.77958 8.61285,-7.76221 1.10664,-2.95776 1.63482,-9.30031 1.37601,-16.52351 -0.2711,-7.56639 -0.78815,-11.38632 -1.78101,-13.15818 -1.02817,-1.83487 -4.23532,-4.18686 -8.9004,-6.52718 l -3.83589,-1.92433 0.60346,-1.51658 c 5.44537,-13.68515 5.7581,-14.38659 6.64089,-14.89502 0.81828,-0.47126 1.34483,-0.42117 5.4877,0.5221 5.91654,1.34711 9.24325,1.40652 11.72543,0.2094 2.23712,-1.07892 17.78914,-16.45357 19.28364,-19.06371 1.49677,-2.61411 1.54227,-5.07301 0.20827,-11.25613 -1.22453,-5.67571 -1.19091,-5.95132 0.87483,-7.17013 1.42896,-0.84311 10.33065,-4.41752 12.39169,-4.9758 1.24959,-0.33848 1.39074,-0.29087 2.33877,0.78888 0.55492,0.63201 1.8047,2.56957 2.7773,4.30569 2.26314,4.03979 4.48762,6.43073 6.47262,6.95703 4.00782,1.06262 18.61165,1.25153 26.01003,0.33645 5.0522,-0.62488 6.76223,-1.96673 9.96658,-7.82072 0.91101,-1.66433 2.1296,-3.46095 2.70796,-3.99249 l 1.05158,-0.96644 1.88693,0.55413 c 2.94981,0.86627 8.44631,2.96456 10.94739,4.17917 3.47381,1.68701 3.53572,1.87621 2.32557,7.10681 -1.39695,6.038 -1.38767,9.07334 0.0358,11.69991 1.4896,2.74867 16.36529,17.62435 19.11395,19.11395 2.62983,1.42519 5.66048,1.43298 11.72477,0.0301 5.63764,-1.30415 5.68095,-1.28681 7.72559,3.09245 1.93955,4.15416 3.76393,9.29784 3.76393,10.61206 0,1.25278 -1.37352,2.50541 -6.09862,5.56184 -5.32577,3.44499 -6.21453,5.03769 -6.76598,12.12498 -0.66577,8.5566 -0.25083,18.49881 0.91903,22.02095 1.18465,3.56663 3.83117,5.91338 10.24914,9.08821 1.52232,0.75306 2.76786,1.52212 2.76786,1.70904 0,0.3406 -4.39325,11.24977 -5.9486,14.77138 -1.01564,2.2996 -1.07528,2.30485 -6.5514,0.57665 -3.19224,-1.00743 -4.74977,-1.30553 -6.99197,-1.3382 -2.63504,-0.0384 -3.01427,0.0475 -4.37978,0.99201 -4.74077,3.27908 -18.24856,17.03977 -19.7294,20.09879 -1.03964,2.14759 -0.98576,4.93238 0.19458,10.05766 0.49861,2.16507 0.90657,4.32187 0.90657,4.79289 0,1.13199 -1.07597,2.06874 -4.10715,3.57575 -3.06079,1.52173 -10.58773,4.54802 -11.31176,4.54802 -0.8214,0 -1.83726,-1.30077 -4.11038,-5.26318 -3.03827,-5.2962 -4.33177,-6.72941 -6.49147,-7.19259 -5.47116,-1.17335 -24.9324,-1.44473 -28.44353,-0.39664 -2.23923,0.66843 -4.1689,2.51699 -6.97474,6.6816 -2.91692,4.32947 -4.51078,6.17377 -5.32746,6.16454 -0.30522,-0.004 -2.13927,-0.64712 -4.07568,-1.43038 z m 37.84896,-39.46789 c 18.98614,-3.2767 32.91738,-16.72853 36.60513,-35.34546 0.7367,-3.71905 0.63712,-12.80846 -0.18193,-16.60714 -2.95738,-13.7161 -11.81894,-24.46779 -25.58287,-31.03954 -5.10925,-2.43947 -7.23332,-2.8999 -14.481,-3.13903 -10.16879,-0.3355 -14.65697,0.5222 -22.038,4.2115 -9.28112,4.63903 -15.21843,10.56954 -19.82926,19.80656 -3.9835,7.98026 -4.49636,10.4673 -4.25644,20.64123 0.13066,5.5407 0.33836,8.12632 0.77903,9.69785 0.83971,2.99459 3.67086,8.82434 5.9132,12.17612 2.42698,3.62776 9.01147,10.21225 12.63923,12.63923 5.20753,3.48383 11.83037,6.21509 17.3259,7.14519 2.85026,0.4824 9.80456,0.38344 13.10701,-0.18651 z"
         style="opacity:1;fill:#cc2628;fill-opacity:1;stroke:none;stroke-width:6.74915648;stroke-linejoin:miter;stroke-miterlimit:4;stroke-dasharray:none;stroke-opacity:1;paint-order:fill markers stroke" />
      <path
         transform="scale(0.26458333)"
         inkscape:connector-curvature="0"
         id="path885"
         d="m 498.3207,914.43361 c -3.76131,-0.91182 -7.8787,-3.54095 -11.98636,-7.65379 -6.12497,-6.1327 -7.98155,-11.20698 -8.02333,-21.92885 -0.0267,-6.8586 0.49389,-8.97757 3.20218,-13.03327 2.76323,-4.13797 9.37231,-10.8536 11.97049,-12.16347 8.22865,-4.14848 22.33724,-3.05963 30.73375,2.37192 5.6457,3.6521 9.82189,9.48505 11.54107,16.11958 1.00668,3.88488 1.02043,11.15688 0.0285,15.05915 -2.5832,10.16223 -10.63005,18.81192 -19.69816,21.17386 -3.63595,0.94704 -13.95643,0.97892 -17.76814,0.0549 z"
         style="opacity:1;fill:#ffffff;fill-opacity:1;stroke:none;stroke-width:9.54474831;stroke-linejoin:miter;stroke-miterlimit:4;stroke-dasharray:none;stroke-opacity:1;paint-order:fill markers stroke" />
      <path
         transform="scale(0.26458333)"
         inkscape:connector-curvature="0"
         id="path887"
         d="m 499.20176,914.60422 c -3.66834,-0.71919 -7.536,-3.0051 -11.68457,-6.90596 -4.90553,-4.61263 -6.76024,-7.49484 -8.03807,-12.49113 -1.21391,-4.74634 -1.39368,-15.97824 -0.30454,-19.02767 1.72197,-4.82125 10.74777,-14.86599 15.15958,-16.87095 5.35352,-2.43293 14.242,-2.84128 21.23994,-0.97578 10.5782,2.81992 18.52,11.09153 20.50227,21.35369 0.90893,4.70554 0.38844,11.69245 -1.21166,16.26483 -1.57643,4.50478 -5.13036,9.88846 -8.35238,12.65264 -3.04386,2.61134 -8.21429,5.28709 -11.577,5.99121 -3.09575,0.64823 -12.44601,0.65365 -15.73357,0.009 z"
         style="opacity:1;fill:#ffffff;fill-opacity:1;stroke:none;stroke-width:9.54474831;stroke-linejoin:miter;stroke-miterlimit:4;stroke-dasharray:none;stroke-opacity:1;paint-order:fill markers stroke" />
      <path
         transform="scale(0.26458333)"
         inkscape:connector-curvature="0"
         id="path889"
         d="m 386.03947,745.44761 c -33.03716,-1.95133 -56.11938,-7.11932 -74.91193,-16.77238 -8.60708,-4.42116 -14.69291,-9.5352 -17.30299,-14.54004 -2.30532,-4.42045 -0.41878,-10.55482 4.82352,-15.68441 20.26649,-19.83076 81.33922,-30.33471 139.16172,-23.93453 21.1372,2.3396 41.56493,7.32827 54.5238,13.31528 8.47877,3.9172 17.42263,10.73176 20.56589,15.66967 1.14934,1.80555 1.42936,2.82297 1.42936,5.19326 0,5.24479 -2.80851,9.73675 -9.00887,14.40886 -14.23246,10.72448 -42.59448,19.08877 -74.07617,21.84593 -8.24056,0.72171 -36.20355,1.02998 -45.20433,0.49836 z"
         style="opacity:1;fill:#ffffff;fill-opacity:1;stroke:none;stroke-width:9.54474831;stroke-linejoin:miter;stroke-miterlimit:4;stroke-dasharray:none;stroke-opacity:1;paint-order:fill markers stroke" />
    </g>
  </g>
</svg>
