<?xml version="1.0" encoding="UTF-8" standalone="no"?>
<!-- Created with Inkscape (http://www.inkscape.org/) -->

<svg
   xmlns:dc="http://purl.org/dc/elements/1.1/"
   xmlns:cc="http://creativecommons.org/ns#"
   xmlns:rdf="http://www.w3.org/1999/02/22-rdf-syntax-ns#"
   xmlns:svg="http://www.w3.org/2000/svg"
   xmlns="http://www.w3.org/2000/svg"
   xmlns:sodipodi="http://sodipodi.sourceforge.net/DTD/sodipodi-0.dtd"
   xmlns:inkscape="http://www.inkscape.org/namespaces/inkscape"
   width="210mm"
   height="148mm"
   viewBox="0 0 210 148"
   version="1.1"
   id="svg8"
   inkscape:version="0.92.3 (2405546, 2018-03-11)"
   sodipodi:docname="splash-screen.svg"
   inkscape:export-filename="C:\Users\Martin\Source\DDSS\LOIN.Comments\splash-screen.png"
   inkscape:export-xdpi="96"
   inkscape:export-ydpi="96">
  <defs
     id="defs2">
    <pattern
       id="EMFhbasepattern"
       patternUnits="userSpaceOnUse"
       width="6"
       height="6"
       x="0"
       y="0" />
  </defs>
  <sodipodi:namedview
     id="base"
     pagecolor="#ffffff"
     bordercolor="#666666"
     borderopacity="1.0"
     inkscape:pageopacity="0.0"
     inkscape:pageshadow="2"
     inkscape:zoom="2.8"
     inkscape:cx="538.32051"
     inkscape:cy="341.40046"
     inkscape:document-units="mm"
     inkscape:current-layer="layer1"
     showgrid="false"
     inkscape:window-width="5120"
     inkscape:window-height="2755"
     inkscape:window-x="-13"
     inkscape:window-y="-13"
     inkscape:window-maximized="1"
     inkscape:snap-page="true" />
  <metadata
     id="metadata5">
    <rdf:RDF>
      <cc:Work
         rdf:about="">
        <dc:format>image/svg+xml</dc:format>
        <dc:type
           rdf:resource="http://purl.org/dc/dcmitype/StillImage" />
        <dc:title />
      </cc:Work>
    </rdf:RDF>
  </metadata>
  <g
     inkscape:label="Layer 1"
     inkscape:groupmode="layer"
     id="layer1"
     transform="translate(0,-149)">
    <rect
       style="opacity:1;fill:#ffffff;fill-opacity:1;stroke:none;stroke-width:0.2;stroke-linejoin:round;stroke-miterlimit:4;stroke-dasharray:none;stroke-opacity:1;paint-order:fill markers stroke"
       id="rect849"
       width="210"
       height="147.99998"
       x="0"
       y="149" />
    <g
       transform="translate(34.260479,69.078176)"
       id="layer1-9"
       inkscape:label="Layer 1">
      <g
         id="g986">
        <path
           style="fill:#d2232a;fill-opacity:1;stroke-width:0.49234006"
           d="m 37.353481,165.66407 c -0.449088,-0.0922 -1.187507,-1.38194 -1.754414,-3.06436 -0.538412,-1.59785 -1.963083,-5.01082 -3.165935,-7.58437 l -2.187005,-4.67917 -2.067421,2.90758 c -4.930982,6.93484 -12.232067,14.62493 -13.443756,14.16005 -0.899911,-0.34526 -0.599364,-1.72218 1.305382,-5.98044 l 1.385297,-3.09698 -1.834893,0.38936 c -1.009191,0.21415 -3.540179,0.38936 -5.6244181,0.38936 -3.652846,0 -3.852635,-0.0612 -5.5393446,-1.69653 -1.6602897,-1.60972 -1.7498209,-1.86451 -1.7498209,-4.97962 0,-4.16659 0.7917517,-5.24157 5.6164455,-7.62562 6.7931461,-3.35672 12.0890211,-2.71616 12.8912451,1.55926 0.432896,2.3071 -0.257853,2.98691 -2.212464,2.17744 -1.24605,-0.51604 -1.928925,-0.47573 -4.236917,0.25009 -3.101406,0.97533 -7.8203881,3.65978 -7.7478401,4.40745 0.0733,0.75541 3.6772321,1.64077 8.1490291,2.00193 l 4.035441,0.32592 2.198613,-3.37925 c 1.209238,-1.85858 3.028512,-4.69476 4.042831,-6.30261 3.328951,-5.27689 4.331763,-4.87916 8.029545,3.18458 l 2.589221,5.64632 4.864324,-0.026 c 2.766789,-0.0148 5.288966,-0.27367 5.849096,-0.6004 0.947829,-0.55288 0.940736,-0.57499 -0.189066,-0.5894 -2.00015,-0.0255 -4.960324,-1.11366 -6.22998,-2.29011 -0.975834,-0.9042 -1.212941,-1.60269 -1.212941,-3.57315 0,-2.05859 0.206594,-2.61172 1.295245,-3.46789 1.343992,-1.05699 3.452386,-1.75544 6.829129,-2.2623 1.672878,-0.2511 2.173503,-0.1028 3.323607,0.98456 0.86734,0.82001 1.354062,1.78983 1.354062,2.69802 0,1.51445 -0.03952,1.53299 -4.800766,2.25144 -1.150953,0.17367 -2.092642,0.46583 -2.092642,0.64924 0,0.18341 1.11235,0.72847 2.471888,1.21124 1.359538,0.48278 3.242916,1.55462 4.185283,2.38187 1.402439,1.23113 1.678516,2.13905 1.713396,3.41094 0.02659,0.96956 -0.271985,2.085 -1.161653,2.66783 -1.604153,1.05088 -7.32476,2.19663 -11.018905,2.20691 l -3.071413,0.009 0.117095,2.70738 c 0,0 0.124323,1.3698 -0.166879,1.95568 -0.14732,0.29641 -0.404125,0.7392 -0.737701,0.6647 z m -8.749736,-6.72081 c -1.007381,-1.11293 -1.028312,-1.75584 -0.08271,-2.54047 1.140084,-0.94601 3.206904,-0.21364 3.206904,1.13635 0,2.17269 -1.726263,2.94853 -3.124196,1.40412 z M 5.2257268,138.91936 c -0.5892786,-0.749 -1.0714156,-1.86771 -1.0714156,-2.48602 0,-1.10067 0.126236,-1.12761 6.0317318,-1.28742 3.317452,-0.0898 7.638142,-0.0897 9.601532,2.5e-4 3.362712,0.15399 3.5698,0.22998 3.5698,1.30989 0,2.04703 -3.190204,3.09386 -10.622758,3.48573 0,0 -4.1091635,0.50032 -6.0365708,-0.0782 -0.558414,-0.16761 -1.4723194,-0.94422 -1.4723194,-0.94422 z"
           id="path831"
           inkscape:connector-curvature="0"
           sodipodi:nodetypes="csccscsccscscscccsccscccsccscccscsccaccccacccsccccccsscac" />
        <g
           aria-label="ČESKÁ AGENTURA PRO STANDARDIZACI"
           style="font-style:normal;font-variant:normal;font-weight:normal;font-stretch:normal;font-size:9.06003284px;line-height:125%;font-family:'Open Sans';-inkscape-font-specification:'Open Sans';letter-spacing:0px;word-spacing:0px;fill:#7b7c7f;fill-opacity:1;stroke:#7b7c7f;stroke-width:0.625;stroke-linecap:butt;stroke-linejoin:miter;stroke-miterlimit:4;stroke-dasharray:none;stroke-opacity:1"
           id="text835">
          <path
             inkscape:connector-curvature="0"
             d="m 67.535938,139.94415 q -1.066147,0 -1.685485,0.71224 -0.614914,0.70782 -0.614914,1.94207 0,1.26964 0.592795,1.96419 0.597219,0.69012 1.698756,0.69012 0.676848,0 1.543922,-0.24331 v 0.65915 q -0.672425,0.25216 -1.658942,0.25216 -1.428902,0 -2.207498,-0.86708 -0.774173,-0.86707 -0.774173,-2.46408 0,-0.99979 0.371603,-1.75184 0.376027,-0.75205 1.079418,-1.15905 0.707815,-0.40699 1.663365,-0.40699 1.017484,0 1.778386,0.3716 l -0.318517,0.64588 q -0.734358,-0.34506 -1.468716,-0.34506 z m -1.619127,-2.54813 h 0.508742 q 0.504318,0.32736 0.968822,0.83611 0.575099,-0.5751 0.977669,-0.83611 h 0.526438 v 0.1106 l -0.291974,0.30082 q -0.637034,0.65473 -0.84053,1.0396 h -0.734359 q -0.101748,-0.18138 -0.327364,-0.46008 -0.225616,-0.2787 -0.787444,-0.88034 z"
             style="font-weight:normal;letter-spacing:0.57943749px;fill:#7b7c7f;fill-opacity:1;stroke:#7b7c7f;stroke-width:0.625;stroke-miterlimit:4;stroke-dasharray:none;stroke-opacity:1"
             id="path895" />
          <path
             inkscape:connector-curvature="0"
             d="m 74.667088,145.83229 h -3.605433 v -6.46766 h 3.605433 v 0.668 h -2.853379 v 2.08363 h 2.680849 v 0.66358 h -2.680849 v 2.38003 h 2.853379 z"
             style="font-weight:normal;letter-spacing:0.57943749px;fill:#7b7c7f;fill-opacity:1;stroke:#7b7c7f;stroke-width:0.625;stroke-miterlimit:4;stroke-dasharray:none;stroke-opacity:1"
             id="path897" />
          <path
             inkscape:connector-curvature="0"
             d="m 80.333946,144.11142 q 0,0.8538 -0.619338,1.33157 -0.619338,0.47778 -1.681061,0.47778 -1.150199,0 -1.769537,-0.2964 v -0.72551 q 0.398146,0.16811 0.867073,0.26543 0.468928,0.0973 0.929007,0.0973 0.752054,0 1.132504,-0.28312 0.380451,-0.28755 0.380451,-0.79629 0,-0.33622 -0.137139,-0.54856 -0.132715,-0.21677 -0.451232,-0.39815 -0.314093,-0.18137 -0.959974,-0.41141 -0.902465,-0.32294 -1.291763,-0.76533 -0.384874,-0.44238 -0.384874,-1.15462 0,-0.74763 0.561828,-1.19002 0.561828,-0.44238 1.486411,-0.44238 0.964398,0 1.773962,0.35391 l -0.234464,0.65473 q -0.800716,-0.33622 -1.557193,-0.33622 -0.597219,0 -0.933431,0.25659 -0.336212,0.25658 -0.336212,0.71224 0,0.33621 0.123867,0.55298 0.123868,0.21234 0.415842,0.39372 0.296397,0.17695 0.902464,0.39372 1.017484,0.36276 1.397935,0.7786 0.384874,0.41584 0.384874,1.07942 z"
             style="font-weight:normal;letter-spacing:0.57943749px;fill:#7b7c7f;fill-opacity:1;stroke:#7b7c7f;stroke-width:0.625;stroke-miterlimit:4;stroke-dasharray:none;stroke-opacity:1"
             id="path899" />
          <path
             inkscape:connector-curvature="0"
             d="m 86.907692,145.83229 h -0.884769 l -2.357909,-3.1365 -0.676848,0.60164 v 2.53486 h -0.752053 v -6.46766 h 0.752053 v 3.20729 l 2.933009,-3.20729 h 0.889193 l -2.601221,2.80914 z"
             style="font-weight:normal;letter-spacing:0.57943749px;fill:#7b7c7f;fill-opacity:1;stroke:#7b7c7f;stroke-width:0.625;stroke-miterlimit:4;stroke-dasharray:none;stroke-opacity:1"
             id="path901" />
          <path
             inkscape:connector-curvature="0"
             d="m 92.437412,145.83229 -0.80514,-2.05709 h -2.592373 l -0.796292,2.05709 h -0.760901 l 2.556982,-6.4942 h 0.63261 l 2.54371,6.4942 z m -1.039604,-2.73394 -0.752053,-2.004 q -0.145987,-0.38045 -0.300822,-0.93343 -0.09732,0.42469 -0.278702,0.93343 l -0.760901,2.004 z m -1.58816,-4.36191 q 0.212345,-0.27427 0.455656,-0.66357 0.247735,-0.3893 0.389298,-0.67685 h 0.893617 v 0.0929 q -0.194649,0.28755 -0.579524,0.70782 -0.384874,0.42026 -0.668,0.6503 h -0.491047 z"
             style="font-weight:normal;letter-spacing:0.57943749px;fill:#7b7c7f;fill-opacity:1;stroke:#7b7c7f;stroke-width:0.625;stroke-miterlimit:4;stroke-dasharray:none;stroke-opacity:1"
             id="path903" />
          <path
             inkscape:connector-curvature="0"
             d="m 68.832124,157.15733 -0.80514,-2.05709 h -2.592372 l -0.796292,2.05709 h -0.760901 l 2.556981,-6.4942 h 0.63261 l 2.543711,6.4942 z m -1.039603,-2.73393 -0.752054,-2.00401 q -0.145987,-0.38045 -0.300821,-0.93343 -0.09732,0.42469 -0.278702,0.93343 l -0.760902,2.00401 z"
             style="font-weight:normal;letter-spacing:0.57943749px;fill:#7b7c7f;fill-opacity:1;stroke:#7b7c7f;stroke-width:0.625;stroke-miterlimit:4;stroke-dasharray:none;stroke-opacity:1"
             id="path905" />
          <path
             inkscape:connector-curvature="0"
             d="m 73.923882,153.76867 h 2.198651 v 3.14535 q -0.513166,0.16368 -1.044027,0.24774 -0.530862,0.0841 -1.229829,0.0841 -1.468716,0 -2.287127,-0.8715 -0.818412,-0.87592 -0.818412,-2.45081 0,-1.00863 0.40257,-1.76511 0.406994,-0.7609 1.167895,-1.15905 0.760901,-0.40257 1.782809,-0.40257 1.03518,0 1.928796,0.38045 l -0.291973,0.66358 q -0.875922,-0.3716 -1.685485,-0.3716 -1.181166,0 -1.844743,0.70339 -0.663577,0.70339 -0.663577,1.95091 0,1.30946 0.637034,1.98631 0.641457,0.67685 1.880134,0.67685 0.672424,0 1.313881,-0.15484 v -1.99073 h -1.446597 z"
             style="font-weight:normal;letter-spacing:0.57943749px;fill:#7b7c7f;fill-opacity:1;stroke:#7b7c7f;stroke-width:0.625;stroke-miterlimit:4;stroke-dasharray:none;stroke-opacity:1"
             id="path907" />
          <path
             inkscape:connector-curvature="0"
             d="m 81.864597,157.15733 h -3.605433 v -6.46766 h 3.605433 v 0.668 h -2.85338 v 2.08363 h 2.68085 v 0.66358 h -2.68085 v 2.38003 h 2.85338 z"
             style="font-weight:normal;letter-spacing:0.57943749px;fill:#7b7c7f;fill-opacity:1;stroke:#7b7c7f;stroke-width:0.625;stroke-miterlimit:4;stroke-dasharray:none;stroke-opacity:1"
             id="path909" />
          <path
             inkscape:connector-curvature="0"
             d="m 88.933815,157.15733 h -0.858226 l -3.534652,-5.42806 h -0.03539 q 0.07078,0.95556 0.07078,1.75185 v 3.67621 h -0.694543 v -6.46766 h 0.849378 l 3.525803,5.40594 h 0.03539 q -0.0088,-0.11944 -0.03981,-0.76533 -0.03097,-0.6503 -0.02212,-0.929 v -3.71161 h 0.703392 z"
             style="font-weight:normal;letter-spacing:0.57943749px;fill:#7b7c7f;fill-opacity:1;stroke:#7b7c7f;stroke-width:0.625;stroke-miterlimit:4;stroke-dasharray:none;stroke-opacity:1"
             id="path911" />
          <path
             inkscape:connector-curvature="0"
             d="m 93.282365,157.15733 h -0.752053 v -5.79966 h -2.04824 v -0.668 h 4.848533 v 0.668 h -2.04824 z"
             style="font-weight:normal;letter-spacing:0.57943749px;fill:#7b7c7f;fill-opacity:1;stroke:#7b7c7f;stroke-width:0.625;stroke-miterlimit:4;stroke-dasharray:none;stroke-opacity:1"
             id="path913" />
          <path
             inkscape:connector-curvature="0"
             d="m 101.76279,150.68967 v 4.18496 q 0,1.10596 -0.668,1.73857 -0.668,0.63261 -1.835896,0.63261 -1.167894,0 -1.809352,-0.63703 -0.637033,-0.63704 -0.637033,-1.75185 v -4.16726 h 0.752053 v 4.22035 q 0,0.80956 0.442385,1.2431 0.442384,0.43354 1.30061,0.43354 0.818413,0 1.260793,-0.43354 0.44239,-0.43796 0.44239,-1.25195 v -4.2115 z"
             style="font-weight:normal;letter-spacing:0.57943749px;fill:#7b7c7f;fill-opacity:1;stroke:#7b7c7f;stroke-width:0.625;stroke-miterlimit:4;stroke-dasharray:none;stroke-opacity:1"
             id="path915" />
          <path
             inkscape:connector-curvature="0"
             d="m 104.81073,154.46763 v 2.6897 h -0.75205 v -6.46766 h 1.77396 q 1.19002,0 1.75627,0.45566 0.57067,0.45565 0.57067,1.37139 0,1.28291 -1.30061,1.73415 l 1.75627,2.90646 h -0.88919 l -1.56604,-2.6897 z m 0,-0.64588 h 1.03076 q 0.79629,0 1.16789,-0.31409 0.37161,-0.31852 0.37161,-0.95113 0,-0.64145 -0.38045,-0.92458 -0.37603,-0.28313 -1.21214,-0.28313 h -0.97767 z"
             style="font-weight:normal;letter-spacing:0.57943749px;fill:#7b7c7f;fill-opacity:1;stroke:#7b7c7f;stroke-width:0.625;stroke-miterlimit:4;stroke-dasharray:none;stroke-opacity:1"
             id="path917" />
          <path
             inkscape:connector-curvature="0"
             d="m 114.31306,157.15733 -0.80514,-2.05709 h -2.59237 l -0.79629,2.05709 h -0.7609 l 2.55698,-6.4942 h 0.63261 l 2.54371,6.4942 z m -1.0396,-2.73393 -0.75205,-2.00401 q -0.14599,-0.38045 -0.30083,-0.93343 -0.0973,0.42469 -0.2787,0.93343 l -0.7609,2.00401 z"
             style="font-weight:normal;letter-spacing:0.57943749px;fill:#7b7c7f;fill-opacity:1;stroke:#7b7c7f;stroke-width:0.625;stroke-miterlimit:4;stroke-dasharray:none;stroke-opacity:1"
             id="path919" />
          <path
             inkscape:connector-curvature="0"
             d="m 123.59412,152.57423 q 0,0.98209 -0.67243,1.51295 -0.668,0.52644 -1.91552,0.52644 h -0.7609 v 2.54371 h -0.75206 v -6.46766 h 1.67664 q 2.42427,0 2.42427,1.88456 z m -3.34885,1.39351 h 0.67684 q 0.99979,0 1.4466,-0.32294 0.44681,-0.32294 0.44681,-1.03518 0,-0.64146 -0.42027,-0.95555 -0.42026,-0.31409 -1.30945,-0.31409 h -0.84053 z"
             style="font-weight:normal;letter-spacing:0.57943749px;fill:#7b7c7f;fill-opacity:1;stroke:#7b7c7f;stroke-width:0.625;stroke-miterlimit:4;stroke-dasharray:none;stroke-opacity:1"
             id="path921" />
          <path
             inkscape:connector-curvature="0"
             d="m 126.27488,154.46763 v 2.6897 h -0.75205 v -6.46766 h 1.77396 q 1.19001,0 1.75626,0.45566 0.57068,0.45565 0.57068,1.37139 0,1.28291 -1.30061,1.73415 l 1.75626,2.90646 h -0.88919 l -1.56604,-2.6897 z m 0,-0.64588 h 1.03075 q 0.7963,0 1.1679,-0.31409 0.3716,-0.31852 0.3716,-0.95113 0,-0.64145 -0.38045,-0.92458 -0.37603,-0.28313 -1.21213,-0.28313 h -0.97767 z"
             style="font-weight:normal;letter-spacing:0.57943749px;fill:#7b7c7f;fill-opacity:1;stroke:#7b7c7f;stroke-width:0.625;stroke-miterlimit:4;stroke-dasharray:none;stroke-opacity:1"
             id="path923" />
          <path
             inkscape:connector-curvature="0"
             d="m 137.32556,153.91465 q 0,1.55277 -0.78744,2.44197 -0.78302,0.88919 -2.18096,0.88919 -1.4289,0 -2.2075,-0.8715 -0.77417,-0.87592 -0.77417,-2.4685 0,-1.57932 0.7786,-2.44639 0.77859,-0.8715 2.21192,-0.8715 1.39351,0 2.17653,0.88477 0.78302,0.88477 0.78302,2.44196 z m -5.15378,0 q 0,1.31389 0.55741,1.99516 0.56182,0.67685 1.62797,0.67685 1.075,0 1.62355,-0.67685 0.54856,-0.67685 0.54856,-1.99516 0,-1.30503 -0.54856,-1.97745 -0.54413,-0.67685 -1.6147,-0.67685 -1.075,0 -1.63682,0.68127 -0.55741,0.67685 -0.55741,1.97303 z"
             style="font-weight:normal;letter-spacing:0.57943749px;fill:#7b7c7f;fill-opacity:1;stroke:#7b7c7f;stroke-width:0.625;stroke-miterlimit:4;stroke-dasharray:none;stroke-opacity:1"
             id="path925" />
          <path
             inkscape:connector-curvature="0"
             d="m 68.416283,166.7615 q 0,0.8538 -0.619339,1.33157 -0.619338,0.47778 -1.68106,0.47778 -1.1502,0 -1.769538,-0.2964 v -0.72551 q 0.398146,0.16811 0.867073,0.26543 0.468928,0.0973 0.929008,0.0973 0.752053,0 1.132504,-0.28313 0.38045,-0.28755 0.38045,-0.79629 0,-0.33621 -0.137139,-0.54856 -0.132715,-0.21677 -0.451232,-0.39814 -0.314093,-0.18138 -0.959974,-0.41142 -0.902464,-0.32294 -1.291763,-0.76533 -0.384874,-0.44238 -0.384874,-1.15462 0,-0.74763 0.561828,-1.19001 0.561828,-0.44239 1.486412,-0.44239 0.964398,0 1.773961,0.35391 l -0.234463,0.65473 q -0.800716,-0.33621 -1.557193,-0.33621 -0.597219,0 -0.933432,0.25658 -0.336212,0.25658 -0.336212,0.71224 0,0.33621 0.123868,0.55298 0.123868,0.21234 0.415841,0.39372 0.296398,0.17695 0.902464,0.39372 1.017485,0.36276 1.397935,0.7786 0.384875,0.41584 0.384875,1.07942 z"
             style="font-weight:normal;letter-spacing:0.57943749px;fill:#7b7c7f;fill-opacity:1;stroke:#7b7c7f;stroke-width:0.625;stroke-miterlimit:4;stroke-dasharray:none;stroke-opacity:1"
             id="path927" />
          <path
             inkscape:connector-curvature="0"
             d="m 72.309179,168.48237 h -0.752054 v -5.79966 h -2.048239 v -0.668 h 4.848533 v 0.668 h -2.04824 z"
             style="font-weight:normal;letter-spacing:0.57943749px;fill:#7b7c7f;fill-opacity:1;stroke:#7b7c7f;stroke-width:0.625;stroke-miterlimit:4;stroke-dasharray:none;stroke-opacity:1"
             id="path929" />
          <path
             inkscape:connector-curvature="0"
             d="m 79.971191,168.48237 -0.80514,-2.05708 h -2.592373 l -0.796292,2.05708 h -0.760901 l 2.556982,-6.4942 h 0.63261 l 2.54371,6.4942 z m -1.039604,-2.73393 -0.752053,-2.004 q -0.145987,-0.38045 -0.300822,-0.93344 -0.09732,0.42469 -0.278702,0.93344 l -0.760901,2.004 z"
             style="font-weight:normal;letter-spacing:0.57943749px;fill:#7b7c7f;fill-opacity:1;stroke:#7b7c7f;stroke-width:0.625;stroke-miterlimit:4;stroke-dasharray:none;stroke-opacity:1"
             id="path931" />
          <path
             inkscape:connector-curvature="0"
             d="m 87.270448,168.48237 h -0.858226 l -3.534651,-5.42805 h -0.03539 q 0.07078,0.95555 0.07078,1.75184 v 3.67621 h -0.694544 v -6.46766 h 0.849378 l 3.525804,5.40594 h 0.03539 q -0.0088,-0.11944 -0.03982,-0.76532 -0.03097,-0.65031 -0.02212,-0.92901 v -3.71161 h 0.703391 z"
             style="font-weight:normal;letter-spacing:0.57943749px;fill:#7b7c7f;fill-opacity:1;stroke:#7b7c7f;stroke-width:0.625;stroke-miterlimit:4;stroke-dasharray:none;stroke-opacity:1"
             id="path933" />
          <path
             inkscape:connector-curvature="0"
             d="m 94.790897,165.18661 q 0,1.60143 -0.871497,2.45081 -0.867073,0.84495 -2.499472,0.84495 h -1.791657 v -6.46766 h 1.981882 q 1.508531,0 2.344638,0.83611 0.836106,0.83611 0.836106,2.33579 z m -0.796292,0.0265 q 0,-1.26522 -0.637033,-1.90667 -0.63261,-0.64146 -1.884558,-0.64146 h -1.092689 v 5.16705 h 0.915735 q 1.344849,0 2.021697,-0.65916 0.676848,-0.66357 0.676848,-1.95976 z"
             style="font-weight:normal;letter-spacing:0.57943749px;fill:#7b7c7f;fill-opacity:1;stroke:#7b7c7f;stroke-width:0.625;stroke-miterlimit:4;stroke-dasharray:none;stroke-opacity:1"
             id="path935" />
          <path
             inkscape:connector-curvature="0"
             d="m 100.8736,168.48237 -0.80514,-2.05708 h -2.592375 l -0.796292,2.05708 h -0.760901 l 2.556982,-6.4942 h 0.63261 l 2.543706,6.4942 z m -1.039606,-2.73393 -0.752054,-2.004 q -0.145986,-0.38045 -0.300821,-0.93344 -0.09732,0.42469 -0.278702,0.93344 l -0.760901,2.004 z"
             style="font-weight:normal;letter-spacing:0.57943749px;fill:#7b7c7f;fill-opacity:1;stroke:#7b7c7f;stroke-width:0.625;stroke-miterlimit:4;stroke-dasharray:none;stroke-opacity:1"
             id="path937" />
          <path
             inkscape:connector-curvature="0"
             d="m 103.87288,165.79268 v 2.68969 h -0.75206 v -6.46766 h 1.77397 q 1.19001,0 1.75626,0.45566 0.57068,0.45565 0.57068,1.37139 0,1.28292 -1.30061,1.73415 l 1.75626,2.90646 h -0.88919 l -1.56604,-2.68969 z m 0,-0.64589 h 1.03075 q 0.7963,0 1.1679,-0.31409 0.3716,-0.31852 0.3716,-0.95113 0,-0.64145 -0.38045,-0.92458 -0.37603,-0.28312 -1.21213,-0.28312 h -0.97767 z"
             style="font-weight:normal;letter-spacing:0.57943749px;fill:#7b7c7f;fill-opacity:1;stroke:#7b7c7f;stroke-width:0.625;stroke-miterlimit:4;stroke-dasharray:none;stroke-opacity:1"
             id="path939" />
          <path
             inkscape:connector-curvature="0"
             d="m 114.47232,165.18661 q 0,1.60143 -0.8715,2.45081 -0.86707,0.84495 -2.49947,0.84495 h -1.79166 v -6.46766 h 1.98189 q 1.50853,0 2.34463,0.83611 0.83611,0.83611 0.83611,2.33579 z m -0.79629,0.0265 q 0,-1.26522 -0.63703,-1.90667 -0.63261,-0.64146 -1.88456,-0.64146 h -1.09269 v 5.16705 h 0.91573 q 1.34485,0 2.0217,-0.65916 0.67685,-0.66357 0.67685,-1.95976 z"
             style="font-weight:normal;letter-spacing:0.57943749px;fill:#7b7c7f;fill-opacity:1;stroke:#7b7c7f;stroke-width:0.625;stroke-miterlimit:4;stroke-dasharray:none;stroke-opacity:1"
             id="path941" />
          <path
             inkscape:connector-curvature="0"
             d="m 116.48951,168.48237 v -6.46766 h 0.75205 v 6.46766 z"
             style="font-weight:normal;letter-spacing:0.57943749px;fill:#7b7c7f;fill-opacity:1;stroke:#7b7c7f;stroke-width:0.625;stroke-miterlimit:4;stroke-dasharray:none;stroke-opacity:1"
             id="path943" />
          <path
             inkscape:connector-curvature="0"
             d="m 123.51891,168.48237 h -4.44596 V 167.894 l 3.4329,-5.20244 h -3.32673 v -0.67685 h 4.24247 v 0.58837 l -3.43291,5.19802 h 3.53023 z"
             style="font-weight:normal;letter-spacing:0.57943749px;fill:#7b7c7f;fill-opacity:1;stroke:#7b7c7f;stroke-width:0.625;stroke-miterlimit:4;stroke-dasharray:none;stroke-opacity:1"
             id="path945" />
          <path
             inkscape:connector-curvature="0"
             d="m 129.41139,168.48237 -0.80514,-2.05708 h -2.59238 l -0.79629,2.05708 h -0.7609 l 2.55698,-6.4942 h 0.63261 l 2.54371,6.4942 z m -1.03961,-2.73393 -0.75205,-2.004 q -0.14599,-0.38045 -0.30082,-0.93344 -0.0973,0.42469 -0.2787,0.93344 l -0.76091,2.004 z"
             style="font-weight:normal;letter-spacing:0.57943749px;fill:#7b7c7f;fill-opacity:1;stroke:#7b7c7f;stroke-width:0.625;stroke-miterlimit:4;stroke-dasharray:none;stroke-opacity:1"
             id="path947" />
          <path
             inkscape:connector-curvature="0"
             d="m 134.42794,162.59424 q -1.06615,0 -1.68549,0.71224 -0.61491,0.70781 -0.61491,1.94206 0,1.26965 0.59279,1.96419 0.59722,0.69012 1.69876,0.69012 0.67685,0 1.54392,-0.24331 v 0.65915 q -0.67242,0.25216 -1.65894,0.25216 -1.4289,0 -2.2075,-0.86707 -0.77417,-0.86708 -0.77417,-2.46409 0,-0.99978 0.3716,-1.75184 0.37603,-0.75205 1.07942,-1.15904 0.70781,-0.407 1.66336,-0.407 1.01749,0 1.77839,0.3716 l -0.31852,0.64589 q -0.73436,-0.34506 -1.46871,-0.34506 z"
             style="font-weight:normal;letter-spacing:0.57943749px;fill:#7b7c7f;fill-opacity:1;stroke:#7b7c7f;stroke-width:0.625;stroke-miterlimit:4;stroke-dasharray:none;stroke-opacity:1"
             id="path949" />
          <path
             inkscape:connector-curvature="0"
             d="m 137.95365,168.48237 v -6.46766 h 0.75206 v 6.46766 z"
             style="font-weight:normal;letter-spacing:0.57943749px;fill:#7b7c7f;fill-opacity:1;stroke:#7b7c7f;stroke-width:0.625;stroke-miterlimit:4;stroke-dasharray:none;stroke-opacity:1"
             id="path951" />
        </g>
        <path
           style="color:#000000;font-style:normal;font-variant:normal;font-weight:normal;font-stretch:normal;font-size:medium;line-height:normal;font-family:sans-serif;font-variant-ligatures:normal;font-variant-position:normal;font-variant-caps:normal;font-variant-numeric:normal;font-variant-alternates:normal;font-feature-settings:normal;text-indent:0;text-align:start;text-decoration:none;text-decoration-line:none;text-decoration-style:solid;text-decoration-color:#000000;letter-spacing:normal;word-spacing:normal;text-transform:none;writing-mode:lr-tb;direction:ltr;text-orientation:mixed;dominant-baseline:auto;baseline-shift:baseline;text-anchor:start;white-space:normal;shape-padding:0;clip-rule:nonzero;display:inline;overflow:visible;visibility:visible;opacity:1;isolation:auto;mix-blend-mode:normal;color-interpolation:sRGB;color-interpolation-filters:linearRGB;solid-color:#000000;solid-opacity:1;vector-effect:none;fill:#000000;fill-opacity:1;fill-rule:evenodd;stroke:none;stroke-width:1.06500006;stroke-linecap:butt;stroke-linejoin:miter;stroke-miterlimit:4;stroke-dasharray:none;stroke-dashoffset:0;stroke-opacity:1;color-rendering:auto;image-rendering:auto;shape-rendering:auto;text-rendering:auto;enable-background:accumulate"
           d="m 52.437625,141.49767 v 1.06454 H 56.8942 l -1.870686,6.62905 1.558563,-1.12862 v 12.07834 l -1.486731,-1.07746 1.90531,6.75411 H 53.238093 V 159.402 H 52.17201 v 6.41563 H 38.138756 v 1.0666 H 52.17201 v 2.55902 l -6.651792,-1.87689 1.154451,1.59319 H 8.847522 l 1.198376,-1.65417 -6.5205316,1.83969 V 159.00151 H 2.4608317 v 13.36301 h 1.0645347 v -2.74299 l 6.338631,2.2686 -0.8521443,-1.66605 H 46.585788 l -0.88315,1.72703 6.469372,-2.31511 v 3.12901 h 1.066083 v -5.88078 h 7.751982 v -1.0666 h -3.861779 l 2.35231,-6.57169 -1.831928,0.93689 v -12.07368 l 1.760099,0.90021 -2.307352,-6.44715 h 3.755842 v -1.06454 z"
           id="path841"
           inkscape:connector-curvature="0" />
      </g>
    </g>
    <text
       xml:space="preserve"
       style="font-style:normal;font-variant:normal;font-weight:normal;font-stretch:normal;font-size:5.64444447px;line-height:125%;font-family:'Open Sans';-inkscape-font-specification:'Open Sans';letter-spacing:0px;word-spacing:0px;fill:#000000;fill-opacity:1;stroke:none;stroke-width:0.26458332px;stroke-linecap:butt;stroke-linejoin:miter;stroke-opacity:1"
       x="26.217556"
       y="157.21803"
       id="text891"><tspan
         sodipodi:role="line"
         id="tspan889"
         x="26.217556"
         y="157.21803"
         style="stroke-width:0.26458332px">Načítání aplikace pro připomínkování datového standardu...</tspan></text>
    <g
       transform="matrix(0.148091,0,0,0.148091,-26.344674,266.55207)"
       id="layer1-7"
       inkscape:label="Layer 1"
       style="stroke-width:6.75260496">
      <path
         sodipodi:nodetypes="ccscccscssscssscssscccccccssc"
         style="fill:#0793a7;stroke-width:6.75260496"
         d="m 264.36711,184.41648 c -0.5451,-0.12851 -1.73572,-0.60506 -2.64583,-1.059 -1.43038,-0.71344 -3.42575,-2.58853 -14.71597,-13.82884 -7.18367,-7.15192 -13.57352,-13.68794 -14.19966,-14.52448 -1.19476,-1.59624 -2.09061,-3.9225 -2.37091,-6.15653 -0.21295,-1.6973 0.39128,-4.64223 1.33432,-6.50322 0.72086,-1.42256 3.65749,-4.73697 4.19704,-4.73697 0.1593,0 7.1945,6.90563 15.63377,15.34583 8.43926,8.44021 15.52357,15.34584 15.74289,15.34584 0.51727,0 25.39982,-24.88071 25.39982,-25.39793 0,-0.21601 -1.81136,-2.20693 -4.02524,-4.42427 l -4.02524,-4.03153 5.00828,-5.03356 c 2.75455,-2.76845 5.19694,-5.03355 5.42752,-5.03355 0.23059,0 2.99833,2.59623 6.15054,5.76939 4.98674,5.01988 5.83896,5.99946 6.56009,7.5405 1.13501,2.42544 1.4949,4.90512 1.06283,7.32284 -0.71576,4.00514 -0.32213,3.54183 -18.1142,21.32064 -16.98196,16.9693 -17.19759,17.15994 -20.36224,18.00256 -1.50961,0.40195 -4.5279,0.44294 -6.05781,0.0823 z m -10.78334,-54.35014 -5.15476,-5.15984 8.20001,-8.21878 c 4.51001,-4.52032 8.71029,-8.52251 9.33397,-8.89376 3.46225,-2.06092 7.93865,-2.2227 11.6203,-0.41997 1.4898,0.72948 4.84054,3.58865 4.84054,4.1304 0,0.28978 -23.26387,23.7218 -23.55157,23.7218 -0.0736,0 -2.45337,-2.32193 -5.28849,-5.15985 z"
         id="path877"
         inkscape:connector-curvature="0" />
      <path
         style="fill:#a80079;stroke-width:6.75260496"
         d="m 225.74001,185.51241 c -0.83501,-0.26693 -2.08516,-0.85097 -2.77813,-1.29787 -1.78498,-1.15113 -32.64393,-32.15725 -33.48284,-33.64252 -1.98593,-3.51602 -2.01193,-8.00154 -0.0671,-11.57484 0.50087,-0.92026 4.85223,-5.43374 14.64917,-15.19495 16.33039,-16.27084 15.21943,-15.43125 20.41895,-15.43125 2.85185,0 3.15092,0.0513 4.7678,0.81752 1.6839,0.798 5.02179,3.57044 5.02179,4.17108 0,0.16577 -6.99451,7.29666 -15.54335,15.84642 l -15.54334,15.54502 12.96265,12.96467 c 7.12945,7.13057 13.08076,12.96467 13.22513,12.96467 0.14437,0 2.07971,-1.81438 4.30075,-4.03196 l 4.03826,-4.03195 4.89453,4.88917 c 2.692,2.68904 4.89454,5.01808 4.89454,5.17565 0,0.43931 -10.56644,10.7858 -11.81928,11.57325 -2.79019,1.75373 -6.80075,2.26128 -9.93954,1.25789 z m 23.34619,-37.71864 -11.50723,-11.50951 4.95956,-4.95955 4.95955,-4.95955 8.08203,8.06853 c 7.24626,7.23416 8.17599,8.26007 8.99062,9.92063 1.83412,3.73874 1.65261,8.06034 -0.47934,11.413 -0.7792,1.22536 -2.90342,3.53595 -3.25074,3.53595 -0.13597,0 -5.42548,-5.17927 -11.75445,-11.5095 z"
         id="path875"
         inkscape:connector-curvature="0" />
      <path
         style="fill:#db0023;stroke-width:6.75260496"
         d="m 268.40091,141.54368 c -0.80036,-0.13505 -2.17196,-0.58063 -3.048,-0.99018 -1.57126,-0.73457 -4.8895,-3.51433 -4.8895,-4.09603 0,-0.16457 6.97744,-7.28038 15.50541,-15.81291 13.52911,-13.53632 15.47043,-15.57698 15.2309,-16.0103 -0.15098,-0.27313 -5.92304,-6.134399 -12.8268,-13.025025 -10.93274,-10.911946 -12.61626,-12.49304 -13.04809,-12.254258 -0.27269,0.150785 -2.16107,1.948805 -4.19642,3.9956 -2.03534,2.046795 -3.82248,3.721446 -3.97143,3.721446 -0.35638,0 -9.92274,-9.580795 -9.92274,-9.937712 0,-0.151357 2.59622,-2.854274 5.76939,-6.006483 5.04455,-5.011247 5.99444,-5.836605 7.56077,-6.56958 3.5371,-1.65521 8.23214,-1.320375 11.48217,0.818869 0.91209,0.60036 7.79058,7.291723 17.30655,16.83574 14.27467,14.31674 15.8688,16.000815 16.58305,17.518791 1.63387,3.472422 1.62959,7.126852 -0.0124,10.616122 -0.74044,1.57342 -2.00664,2.92137 -14.20692,15.12405 -7.36672,7.36817 -13.90831,13.76082 -14.53686,14.20589 -2.19739,1.55594 -5.92323,2.34786 -8.77905,1.86597 z m -29.27455,-26.22739 c -4.50637,-4.52881 -8.25604,-8.52056 -8.63669,-9.19427 -1.00201,-1.77346 -1.51202,-3.82434 -1.50881,-6.06729 0.005,-3.43749 0.95797,-5.692235 3.56146,-8.425709 l 1.69428,-1.778873 11.6582,11.637612 c 6.41201,6.40069 11.65819,11.7597 11.65819,11.90893 0,0.43502 -9.62145,9.92325 -10.06258,9.92325 -0.22003,0 -3.98385,-3.60164 -8.36405,-8.00365 z"
         id="path873"
         inkscape:connector-curvature="0" />
      <path
         style="fill:#034d95;stroke-width:6.75260496"
         d="m 219.90238,143.155 c -1.92989,-0.48598 -3.86332,-1.61112 -5.65561,-3.2912 l -1.80524,-1.69223 11.77299,-11.79158 11.77298,-11.79158 5.15908,5.15908 5.15907,5.15908 -7.67164,7.6888 c -4.2194,4.22885 -8.21247,8.09057 -8.87348,8.5816 -1.92644,1.43109 -3.76107,2.03806 -6.47108,2.14093 -1.30969,0.0497 -2.83387,-0.0236 -3.38707,-0.1629 z m -26.0205,-23.60537 c -3.06835,-3.09232 -5.88306,-6.15818 -6.25491,-6.81302 -1.43091,-2.51987 -1.95494,-6.36636 -1.23272,-9.04848 0.78375,-2.91063 1.03862,-3.19704 17.80431,-20.007237 8.89926,-8.922882 16.69075,-16.526929 17.31443,-16.897881 3.55838,-2.116479 8.43339,-2.185837 11.96292,-0.1702 0.7035,0.401754 6.79768,6.268663 14.89538,14.339888 12.59476,12.553585 13.77918,13.809953 14.6237,15.512031 1.76349,3.554179 1.82317,7.014459 0.18151,10.522609 -0.76214,1.62865 -3.5358,4.95552 -4.1315,4.95552 -0.16669,0 -7.26747,-6.96516 -15.77951,-15.478129 -8.51203,-8.512969 -15.59298,-15.478125 -15.73543,-15.478125 -0.42794,0 -25.53957,25.227834 -25.53957,25.657754 0,0.21863 1.8144,2.21473 4.03199,4.43579 l 4.03199,4.0383 -5.02157,5.02679 c -2.76186,2.76473 -5.14546,5.02678 -5.29688,5.02678 -0.15143,0 -2.78579,-2.53007 -5.85414,-5.62239 z"
         id="path871"
         inkscape:connector-curvature="0" />
      <g
         transform="translate(139.24742,13.898015)"
         id="g899"
         style="stroke-width:6.75260496">
        <path
           inkscape:connector-curvature="0"
           id="path901-6"
           transform="matrix(0.26458333,0,0,0.26458333,-139.24742,-13.898015)"
           d="m 1139.1562,651.08203 c -14.2366,0 -25.8144,11.57773 -25.8144,25.81445 0,14.23669 11.5778,25.82032 25.8144,25.82032 14.2367,0 25.8223,-11.58363 25.8223,-25.82032 0,-14.23672 -11.5856,-25.81445 -25.8223,-25.81445 z m 0,3.7793 c 12.1941,0 22.043,9.84104 22.043,22.03515 0,12.19408 -9.8489,22.04102 -22.043,22.04102 -12.194,0 -22.0351,-9.84694 -22.0351,-22.04102 0,-12.19411 9.8411,-22.03515 22.0351,-22.03515 z m -10.7734,6.74219 v 30.58789 h 3.5567 V 679.4707 h 6.3808 l 7.4063,12.72071 h 4.205 l -8.3046,-13.7461 c 4.1004,-1.42261 6.1503,-4.15647 6.1503,-8.20117 0,-2.88708 -0.9,-5.0478 -2.6992,-6.48437 -1.7852,-1.43655 -4.5529,-2.15625 -8.3047,-2.15625 z m 3.5567,3.11718 h 4.623 c 2.636,0 4.5469,0.44722 5.7324,1.33985 1.1995,0.89262 1.8008,2.35069 1.8008,4.37304 0,1.99446 -0.5863,3.49386 -1.7578,4.49805 -1.1716,0.99026 -3.013,1.48438 -5.5234,1.48438 h -4.875 z"
           style="font-style:normal;font-variant:normal;font-weight:normal;font-stretch:normal;font-size:medium;line-height:125%;font-family:'Open Sans';-inkscape-font-specification:'Open Sans';letter-spacing:0px;word-spacing:0px;fill:#000000;fill-opacity:1;stroke:none;stroke-width:6.75260448px;stroke-linecap:butt;stroke-linejoin:miter;stroke-opacity:1" />
      </g>
    </g>
  </g>
</svg>
