<?xml version="1.0" encoding="UTF-8" standalone="no"?>
<!DOCTYPE svg PUBLIC "-//W3C//DTD SVG 1.0//EN" "http://www.w3.org/TR/2001/PR-SVG-20010719/DTD/svg10.dtd">
<svg width="83cm" height="48cm" viewBox="-302 138 1643 946" xmlns="http://www.w3.org/2000/svg" xmlns:xlink="http://www.w3.org/1999/xlink">
  <g>
    <rect style="fill: #e5e5e5" x="800" y="140" width="540" height="540" rx="16" ry="16"/>
    <rect style="fill: none; fill-opacity:0; stroke-width: 2; stroke-linejoin: round; stroke: #bfbfbf" x="800" y="140" width="540" height="540" rx="16" ry="16"/>
  </g>
  <g>
    <rect style="fill: #e5e5e5" x="500" y="700" width="840" height="383" rx="16" ry="16"/>
    <rect style="fill: none; fill-opacity:0; stroke-width: 2; stroke-linejoin: round; stroke: #bfbfbf" x="500" y="700" width="840" height="383" rx="16" ry="16"/>
  </g>
  <g>
    <rect style="fill: #e5e5e5" x="-300" y="220" width="780" height="860" rx="16" ry="16"/>
    <rect style="fill: none; fill-opacity:0; stroke-width: 2; stroke-linejoin: round; stroke: #bfbfbf" x="-300" y="220" width="780" height="860" rx="16" ry="16"/>
  </g>
  <g>
    <rect style="fill: #90ee90" x="540" y="340" width="200" height="100"/>
    <rect style="fill: none; fill-opacity:0; stroke-width: 1; stroke: #000000" x="540" y="340" width="200" height="100"/>
    <text font-size="12.8" style="fill: #000000;text-anchor:middle;font-family:sans-serif;font-style:normal;font-weight:700" x="640" y="385.9">
      <tspan x="640" y="385.9">LOIN </tspan>
      <tspan x="640" y="401.9">(IfcProjectLibrary)</tspan>
    </text>
  </g>
  <g>
    <rect style="fill: #d8e5e5" x="220" y="300" width="220" height="60"/>
    <rect style="fill: none; fill-opacity:0; stroke-width: 1; stroke: #000000" x="220" y="300" width="220" height="60"/>
    <text font-size="12.8" style="fill: #000000;text-anchor:middle;font-family:sans-serif;font-style:normal;font-weight:normal" x="330" y="325.9">
      <tspan x="330" y="325.9">Declared requirements</tspan>
      <tspan x="330" y="341.9">(IfcRelDeclares)</tspan>
    </text>
  </g>
  <g>
    <polyline style="fill: none; fill-opacity:0; stroke-width: 2; stroke: #000000" points="540,390 500,390 500,330 440,330 "/>
    <text font-size="12.7998" style="fill: #000000;text-anchor:start;font-family:monospace;font-style:normal;font-weight:normal" x="502" y="357"></text>
    <text font-size="12.7998" style="fill: #000000;text-anchor:end;font-family:monospace;font-style:normal;font-weight:normal" x="536" y="387">1</text>
    <text font-size="12.7998" style="fill: #000000;text-anchor:start;font-family:monospace;font-style:normal;font-weight:normal" x="444" y="327">*</text>
  </g>
  <g>
    <rect style="fill: #ffffff" x="220" y="420" width="220" height="80"/>
    <rect style="fill: none; fill-opacity:0; stroke-width: 1; stroke: #000000" x="220" y="420" width="220" height="80"/>
    <text font-size="12.8" style="fill: #000000;text-anchor:middle;font-family:sans-serif;font-style:normal;font-weight:normal" x="330" y="455.9">
      <tspan x="330" y="455.9">Set of requirements</tspan>
      <tspan x="330" y="471.9">(IfcPropertySetTemplate)</tspan>
    </text>
  </g>
  <g>
    <polyline style="fill: none; fill-opacity:0; stroke-width: 2; stroke: #000000" points="330,360.507 330,361.507 330,418.49 330,419.49 "/>
    <text font-size="12.7998" style="fill: #000000;text-anchor:start;font-family:monospace;font-style:normal;font-weight:normal" x="332" y="386.999"></text>
    <text font-size="12.7998" style="fill: #000000;text-anchor:start;font-family:monospace;font-style:normal;font-weight:normal" x="334" y="372.507">*</text>
    <text font-size="12.7998" style="fill: #000000;text-anchor:start;font-family:monospace;font-style:normal;font-weight:normal" x="334" y="415.49">*</text>
  </g>
  <g>
    <rect style="fill: #ffffff" x="220" y="560" width="220" height="60"/>
    <rect style="fill: none; fill-opacity:0; stroke-width: 1; stroke: #000000" x="220" y="560" width="220" height="60"/>
    <text font-size="12.8" style="fill: #000000;text-anchor:middle;font-family:sans-serif;font-style:normal;font-weight:normal" x="330" y="585.9">
      <tspan x="330" y="585.9">Requirement template</tspan>
      <tspan x="330" y="601.9">(IfcPropertyTemplate)</tspan>
    </text>
  </g>
  <g>
    <polyline style="fill: none; fill-opacity:0; stroke-width: 2; stroke: #000000" points="330,500 330,501 330,558.493 330,559.493 "/>
    <text font-size="12.7998" style="fill: #000000;text-anchor:start;font-family:monospace;font-style:normal;font-weight:normal" x="332" y="526.746"></text>
    <text font-size="12.7998" style="fill: #000000;text-anchor:start;font-family:monospace;font-style:normal;font-weight:normal" x="334" y="512">1</text>
    <text font-size="12.7998" style="fill: #000000;text-anchor:start;font-family:monospace;font-style:normal;font-weight:normal" x="334" y="555.493">1..*</text>
  </g>
  <g>
    <rect style="fill: #ffffff" x="220" y="700" width="220" height="60"/>
    <rect style="fill: none; fill-opacity:0; stroke-width: 1; stroke: #000000" x="220" y="700" width="220" height="60"/>
    <text font-size="12.8" style="fill: #000000;text-anchor:middle;font-family:sans-serif;font-style:normal;font-weight:normal" x="330" y="725.9">
      <tspan x="330" y="725.9">Complex requirement</tspan>
      <tspan x="330" y="741.9">(IfcComplexPropertyTemplate)</tspan>
    </text>
  </g>
  <g>
    <rect style="fill: #ffffff" x="-20" y="700" width="220" height="60"/>
    <rect style="fill: none; fill-opacity:0; stroke-width: 1; stroke: #000000" x="-20" y="700" width="220" height="60"/>
    <text font-size="12.8" style="fill: #000000;text-anchor:middle;font-family:sans-serif;font-style:normal;font-weight:normal" x="90" y="725.9">
      <tspan x="90" y="725.9">Simple requirement</tspan>
      <tspan x="90" y="741.9">(IfcSimplePropertyTemplate)</tspan>
    </text>
  </g>
  <g>
    <polyline style="fill: none; fill-opacity:0; stroke-width: 2; stroke: #000000" points="275,638.236 275,660 90,660 90,699.503 "/>
    <polygon style="fill: #ffffff" points="283,638.236 275,622.236 267,638.236 "/>
    <polygon style="fill: none; fill-opacity:0; stroke-width: 2; stroke: #000000" points="283,638.236 275,622.236 267,638.236 "/>
  </g>
  <g>
    <polyline style="fill: none; fill-opacity:0; stroke-width: 2; stroke: #000000" points="90,778.236 90,838 90,838 90,879.555 "/>
    <polygon style="fill: #ffffff" points="98,778.236 90,762.236 82,778.236 "/>
    <polygon style="fill: none; fill-opacity:0; stroke-width: 2; stroke: #000000" points="98,778.236 90,762.236 82,778.236 "/>
  </g>
  <g>
    <polyline style="fill: none; fill-opacity:0; stroke-width: 2; stroke: #000000" points="385,700 385,699 385,621 385,620 "/>
    <text font-size="12.7998" style="fill: #000000;text-anchor:start;font-family:monospace;font-style:normal;font-weight:normal" x="387" y="657"></text>
    <text font-size="12.7998" style="fill: #000000;text-anchor:start;font-family:monospace;font-style:normal;font-weight:normal" x="389" y="696">1</text>
    <text font-size="12.7998" style="fill: #000000;text-anchor:start;font-family:monospace;font-style:normal;font-weight:normal" x="389" y="632">1..*</text>
  </g>
  <g>
    <rect style="fill: #ffffff" x="200" y="880" width="220" height="60"/>
    <rect style="fill: none; fill-opacity:0; stroke-width: 1; stroke: #000000" x="200" y="880" width="220" height="60"/>
    <text font-size="12.8" style="fill: #000000;text-anchor:middle;font-family:sans-serif;font-style:normal;font-weight:normal" x="310" y="905.9">
      <tspan x="310" y="905.9">Bounded value (interval)</tspan>
      <tspan x="310" y="921.9">(P_BOUNDEDVALUE)</tspan>
    </text>
  </g>
  <g>
    <rect style="fill: #ffffff" x="-200" y="960" width="180" height="60"/>
    <rect style="fill: none; fill-opacity:0; stroke-width: 1; stroke: #000000" x="-200" y="960" width="180" height="60"/>
    <text font-size="12.8" style="fill: #000000;text-anchor:middle;font-family:sans-serif;font-style:normal;font-weight:normal" x="-110" y="985.9">
      <tspan x="-110" y="985.9">List of values</tspan>
      <tspan x="-110" y="1001.9">(P_LISTVALUE)</tspan>
    </text>
  </g>
  <g>
    <rect style="fill: #ffffff" x="195.425" y="960" width="229.15" height="100"/>
    <rect style="fill: none; fill-opacity:0; stroke-width: 1; stroke: #000000" x="195.425" y="960" width="229.15" height="100"/>
    <text font-size="12.8" style="fill: #000000;text-anchor:middle;font-family:sans-serif;font-style:normal;font-weight:normal" x="310" y="989.9">
      <tspan x="310" y="989.9">Reference to external </tspan>
      <tspan x="310" y="1005.9">document, classifications,</tspan>
      <tspan x="310" y="1021.9">people etc.</tspan>
      <tspan x="310" y="1037.9">(P_REFERENCEVALUE)</tspan>
    </text>
  </g>
  <g>
    <rect style="fill: #ffffff" x="0" y="960" width="180" height="60"/>
    <rect style="fill: none; fill-opacity:0; stroke-width: 1; stroke: #000000" x="0" y="960" width="180" height="60"/>
    <text font-size="12.8" style="fill: #000000;text-anchor:middle;font-family:sans-serif;font-style:normal;font-weight:normal" x="90" y="985.9">
      <tspan x="90" y="985.9">Table of values</tspan>
      <tspan x="90" y="1001.9">(P_TABLEVALUE)</tspan>
    </text>
  </g>
  <g>
    <polyline style="fill: none; fill-opacity:0; stroke-width: 2; stroke: #000000" points="90,778.236 90,820 310,820 310,879.496 "/>
    <polygon style="fill: #ffffff" points="98,778.236 90,762.236 82,778.236 "/>
    <polygon style="fill: none; fill-opacity:0; stroke-width: 2; stroke: #000000" points="98,778.236 90,762.236 82,778.236 "/>
  </g>
  <g>
    <polyline style="fill: none; fill-opacity:0; stroke-width: 2; stroke: #000000" points="275,638.236 275,660 330,660 330,699.503 "/>
    <polygon style="fill: #ffffff" points="283,638.236 275,622.236 267,638.236 "/>
    <polygon style="fill: none; fill-opacity:0; stroke-width: 2; stroke: #000000" points="283,638.236 275,622.236 267,638.236 "/>
  </g>
  <g>
    <polyline style="fill: none; fill-opacity:0; stroke-width: 2; stroke: #000000" points="90,778.236 90,820 -110,820 -110,879.496 "/>
    <polygon style="fill: #ffffff" points="98,778.236 90,762.236 82,778.236 "/>
    <polygon style="fill: none; fill-opacity:0; stroke-width: 2; stroke: #000000" points="98,778.236 90,762.236 82,778.236 "/>
  </g>
  <g>
    <rect style="fill: #ffc0cb" x="-280" y="660" width="200" height="60"/>
    <rect style="fill: none; fill-opacity:0; stroke-width: 1; stroke: #000000" x="-280" y="660" width="200" height="60"/>
    <text font-size="12.8" style="fill: #000000;text-anchor:middle;font-family:sans-serif;font-style:normal;font-weight:normal" x="-180" y="685.9">
      <tspan x="-180" y="685.9">Unit</tspan>
      <tspan x="-180" y="701.9">(IfcUnit)</tspan>
    </text>
  </g>
  <g>
    <polyline style="fill: none; fill-opacity:0; stroke-width: 2; stroke: #000000" points="-80,690 -50,690 -50,715 -20,715 "/>
    <text font-size="12.7998" style="fill: #000000;text-anchor:start;font-family:monospace;font-style:normal;font-weight:normal" x="-48" y="699.5"></text>
    <text font-size="12.7998" style="fill: #000000;text-anchor:start;font-family:monospace;font-style:normal;font-weight:normal" x="-76" y="687">1</text>
    <text font-size="12.7998" style="fill: #000000;text-anchor:end;font-family:monospace;font-style:normal;font-weight:normal" x="-24" y="712">*</text>
  </g>
  <g>
    <rect style="fill: #ffffff" x="1020" y="760" width="180" height="60"/>
    <rect style="fill: none; fill-opacity:0; stroke-width: 1; stroke: #000000" x="1020" y="760" width="180" height="60"/>
    <text font-size="12.8" style="fill: #000000;text-anchor:middle;font-family:sans-serif;font-style:normal;font-weight:normal" x="1110" y="793.9">
      <tspan x="1110" y="793.9">IfcMetricValueSelect</tspan>
    </text>
  </g>
  <g>
    <rect style="fill: #d8e5e5" x="540" y="760" width="160" height="60"/>
    <rect style="fill: none; fill-opacity:0; stroke-width: 1; stroke: #000000" x="540" y="760" width="160" height="60"/>
    <text font-size="12.8" style="fill: #000000;text-anchor:middle;font-family:sans-serif;font-style:normal;font-weight:normal" x="620" y="785.9">
      <tspan x="620" y="785.9">IfcRelAssociates</tspan>
      <tspan x="620" y="801.9">Constraint</tspan>
    </text>
  </g>
  <g>
    <polyline style="fill: none; fill-opacity:0; stroke-width: 2; stroke: #000000" points="1110,838.236 1110,860 1230,860 1230,880 "/>
    <polygon style="fill: #ffffff" points="1118,838.236 1110,822.236 1102,838.236 "/>
    <polygon style="fill: none; fill-opacity:0; stroke-width: 2; stroke: #000000" points="1118,838.236 1110,822.236 1102,838.236 "/>
  </g>
  <g>
    <rect style="fill: #ffffff" x="900" y="880" width="180" height="60"/>
    <rect style="fill: none; fill-opacity:0; stroke-width: 1; stroke: #000000" x="900" y="880" width="180" height="60"/>
    <text font-size="12.8" style="fill: #000000;text-anchor:middle;font-family:sans-serif;font-style:normal;font-weight:normal" x="990" y="913.9">
      <tspan x="990" y="913.9">IfcMeasureWithUnit</tspan>
    </text>
  </g>
  <g>
    <rect style="fill: #ffffff" x="1140" y="880" width="180" height="60"/>
    <rect style="fill: none; fill-opacity:0; stroke-width: 1; stroke: #000000" x="1140" y="880" width="180" height="60"/>
    <text font-size="12.8" style="fill: #000000;text-anchor:middle;font-family:sans-serif;font-style:normal;font-weight:normal" x="1230" y="905.9">
      <tspan x="1230" y="905.9">Table of values</tspan>
      <tspan x="1230" y="921.9">(IfcTable)</tspan>
    </text>
  </g>
  <g>
    <rect style="fill: #ffc0cb" x="1020" y="1000" width="180" height="60"/>
    <rect style="fill: none; fill-opacity:0; stroke-width: 1; stroke: #000000" x="1020" y="1000" width="180" height="60"/>
    <text font-size="12.8" style="fill: #000000;text-anchor:middle;font-family:sans-serif;font-style:normal;font-weight:normal" x="1110" y="1033.9">
      <tspan x="1110" y="1033.9">IfcValue</tspan>
    </text>
  </g>
  <g>
    <polyline style="fill: none; fill-opacity:0; stroke-width: 2; stroke: #000000" points="1110,838.236 1110,1000 1110,1000 "/>
    <polygon style="fill: #ffffff" points="1118,838.236 1110,822.236 1102,838.236 "/>
    <polygon style="fill: none; fill-opacity:0; stroke-width: 2; stroke: #000000" points="1118,838.236 1110,822.236 1102,838.236 "/>
  </g>
  <g>
    <polyline style="fill: none; fill-opacity:0; stroke-width: 2; stroke: #000000" points="1110,838.236 1110,860 990,860 990,880 "/>
    <polygon style="fill: #ffffff" points="1118,838.236 1110,822.236 1102,838.236 "/>
    <polygon style="fill: none; fill-opacity:0; stroke-width: 2; stroke: #000000" points="1118,838.236 1110,822.236 1102,838.236 "/>
  </g>
  <g>
    <rect style="fill: #ffc0cb" x="780" y="1000" width="160" height="60"/>
    <rect style="fill: none; fill-opacity:0; stroke-width: 1; stroke: #000000" x="780" y="1000" width="160" height="60"/>
    <text font-size="12.8" style="fill: #000000;text-anchor:middle;font-family:sans-serif;font-style:normal;font-weight:normal" x="860" y="1033.9">
      <tspan x="860" y="1033.9">IfcUnit</tspan>
    </text>
  </g>
  <g>
    <polyline style="fill: none; fill-opacity:0; stroke-width: 2; stroke: #000000" points="945,940 945,970 900,970 900,1000 "/>
    <text font-size="12.7998" style="fill: #000000;text-anchor:middle;font-family:monospace;font-style:normal;font-weight:normal" x="922.5" y="967"></text>
    <text font-size="12.7998" style="fill: #000000;text-anchor:start;font-family:monospace;font-style:normal;font-weight:normal" x="949" y="952">*</text>
    <text font-size="12.7998" style="fill: #000000;text-anchor:start;font-family:monospace;font-style:normal;font-weight:normal" x="904" y="996">1</text>
  </g>
  <g>
    <polyline style="fill: none; fill-opacity:0; stroke-width: 2; stroke: #000000" points="440,590 620,590 620,760 "/>
    <text font-size="12.7998" style="fill: #000000;text-anchor:middle;font-family:monospace;font-style:normal;font-weight:normal" x="530" y="587"></text>
    <text font-size="12.7998" style="fill: #000000;text-anchor:start;font-family:monospace;font-style:normal;font-weight:normal" x="444" y="587">1..*</text>
    <text font-size="12.7998" style="fill: #000000;text-anchor:start;font-family:monospace;font-style:normal;font-weight:normal" x="624" y="756">*</text>
  </g>
  <g>
    <polyline style="fill: none; fill-opacity:0; stroke-width: 2; stroke: #000000" points="700.51,790 701.51,790 758.494,790 759.494,790 "/>
    <text font-size="12.7998" style="fill: #000000;text-anchor:middle;font-family:monospace;font-style:normal;font-weight:normal" x="730.002" y="787"></text>
    <text font-size="12.7998" style="fill: #000000;text-anchor:start;font-family:monospace;font-style:normal;font-weight:normal" x="704.51" y="787">*</text>
    <text font-size="12.7998" style="fill: #000000;text-anchor:end;font-family:monospace;font-style:normal;font-weight:normal" x="755.494" y="787">1</text>
  </g>
  <g>
    <rect style="fill: #ffffff" x="760" y="760" width="200" height="60"/>
    <rect style="fill: none; fill-opacity:0; stroke-width: 1; stroke: #000000" x="760" y="760" width="200" height="60"/>
    <text font-size="12.8" style="fill: #000000;text-anchor:middle;font-family:sans-serif;font-style:normal;font-weight:normal" x="860" y="785.9">
      <tspan x="860" y="785.9">Constraint definition</tspan>
      <tspan x="860" y="801.9">(IfcMetric)</tspan>
    </text>
  </g>
  <g>
    <polyline style="fill: none; fill-opacity:0; stroke-width: 2; stroke: #000000" points="960,790 961,790 1019,790 1020,790 "/>
    <text font-size="12.7998" style="fill: #000000;text-anchor:middle;font-family:monospace;font-style:normal;font-weight:normal" x="990" y="787"></text>
    <text font-size="12.7998" style="fill: #000000;text-anchor:start;font-family:monospace;font-style:normal;font-weight:normal" x="964" y="787">1</text>
    <text font-size="12.7998" style="fill: #000000;text-anchor:end;font-family:monospace;font-style:normal;font-weight:normal" x="1016" y="787">1</text>
  </g>
  <g>
    <rect style="fill: #ffffff" x="540" y="860" width="162" height="200"/>
    <rect style="fill: none; fill-opacity:0; stroke-width: 1; stroke: #000000" x="540" y="860" width="162" height="200"/>
    <text font-size="10.16" style="fill: #000000;text-anchor:middle;font-family:sans-serif;font-style:normal;font-weight:normal" x="621" y="893.2">
      <tspan x="621" y="893.2">Constraint type:</tspan>
      <tspan x="621" y="905.9"></tspan>
      <tspan x="621" y="918.6">GREATERTHAN</tspan>
      <tspan x="621" y="931.3">GREATERTHANOREQUALTO</tspan>
      <tspan x="621" y="944">LESSTHAN</tspan>
      <tspan x="621" y="956.7">LESSTHANOREQUALTO</tspan>
      <tspan x="621" y="969.4">EQUALTO</tspan>
      <tspan x="621" y="982.1">NOTEQUALTO</tspan>
      <tspan x="621" y="994.8">INCLUDES</tspan>
      <tspan x="621" y="1007.5">NOTINCLUDES</tspan>
      <tspan x="621" y="1020.2">INCLUDEDIN</tspan>
      <tspan x="621" y="1032.9">NOTINCLUDEDIN</tspan>
    </text>
  </g>
  <text font-size="19.7556" style="fill: #000000;text-anchor:start;font-family:sans-serif;font-style:normal;font-weight:700" x="-280" y="180">
    <tspan x="-280" y="180">LOIN as IFC</tspan>
  </text>
  <text font-size="12.8" style="fill: #000000;text-anchor:start;font-family:sans-serif;font-style:normal;font-weight:normal" x="-280" y="200">
    <tspan x="-280" y="200">Ing. Martin Černý, Ph.D., 01/06/2019</tspan>
  </text>
  <text font-size="12.8" style="fill: #000000;text-anchor:start;font-family:sans-serif;font-style:normal;font-weight:normal" x="80" y="670">
    <tspan x="80" y="670"></tspan>
  </text>
  <text font-size="14.1111" style="fill: #393232;text-anchor:start;font-family:sans-serif;font-style:normal;font-weight:700" x="-260" y="280">
    <tspan x="-260" y="280">Structured requirements for information</tspan>
    <tspan x="-260" y="297.639">and documents</tspan>
  </text>
  <text font-size="14.1111" style="fill: #393232;text-anchor:middle;font-family:sans-serif;font-style:normal;font-weight:700" x="940" y="731.676">
    <tspan x="940" y="731.676">Value and units constraints</tspan>
  </text>
  <g>
    <rect style="fill: #ffc0cb" x="-280" y="740" width="200" height="60"/>
    <rect style="fill: none; fill-opacity:0; stroke-width: 1; stroke: #000000" x="-280" y="740" width="200" height="60"/>
    <text font-size="12.8" style="fill: #000000;text-anchor:middle;font-family:sans-serif;font-style:normal;font-weight:normal" x="-180" y="765.9">
      <tspan x="-180" y="765.9">Type of value</tspan>
      <tspan x="-180" y="781.9">[length, area, number, ...]</tspan>
    </text>
  </g>
  <g>
    <polyline style="fill: none; fill-opacity:0; stroke-width: 2; stroke: #000000" points="-80,770 -50.5034,770 -50.5034,745 -20,745 "/>
    <text font-size="12.7998" style="fill: #000000;text-anchor:start;font-family:monospace;font-style:normal;font-weight:normal" x="-48.5034" y="754.5"></text>
    <text font-size="12.7998" style="fill: #000000;text-anchor:start;font-family:monospace;font-style:normal;font-weight:normal" x="-76" y="767">1</text>
    <text font-size="12.7998" style="fill: #000000;text-anchor:end;font-family:monospace;font-style:normal;font-weight:normal" x="-24" y="742">*</text>
  </g>
  <text font-size="14.1111" style="fill: #393232;text-anchor:middle;font-family:sans-serif;font-style:normal;font-weight:700" x="1080" y="169.297">
    <tspan x="1080" y="169.297">Context</tspan>
  </text>
  <g>
    <rect style="fill: #d8e5e5" x="0" y="500" width="140" height="60"/>
    <rect style="fill: none; fill-opacity:0; stroke-width: 1; stroke: #000000" x="0" y="500" width="140" height="60"/>
    <text font-size="12.8" style="fill: #000000;text-anchor:middle;font-family:sans-serif;font-style:normal;font-weight:normal" x="70" y="525.9">
      <tspan x="70" y="525.9">IfcRelAssociates</tspan>
      <tspan x="70" y="541.9">Document</tspan>
    </text>
  </g>
  <g>
    <rect style="fill: #ffffff" x="-280" y="500" width="220" height="60"/>
    <rect style="fill: none; fill-opacity:0; stroke-width: 1; stroke: #000000" x="-280" y="500" width="220" height="60"/>
    <text font-size="12.8" style="fill: #000000;text-anchor:middle;font-family:sans-serif;font-style:normal;font-weight:normal" x="-170" y="525.9">
      <tspan x="-170" y="525.9">Related documents</tspan>
      <tspan x="-170" y="541.9">(IfcDocumentReference)</tspan>
    </text>
  </g>
  <g>
    <polyline style="fill: none; fill-opacity:0; stroke-width: 2; stroke: #000000" points="-0.41086,530 -30.001,530 -30.001,530 -59.5149,530 "/>
    <text font-size="12.7998" style="fill: #000000;text-anchor:middle;font-family:monospace;font-style:normal;font-weight:normal" x="-30.001" y="527"></text>
    <text font-size="12.7998" style="fill: #000000;text-anchor:end;font-family:monospace;font-style:normal;font-weight:normal" x="-4.41086" y="527">*</text>
    <text font-size="12.7998" style="fill: #000000;text-anchor:start;font-family:monospace;font-style:normal;font-weight:normal" x="-55.5149" y="527">1</text>
  </g>
  <g>
    <rect style="fill: #d8e5e5" x="0" y="380" width="140" height="60"/>
    <rect style="fill: none; fill-opacity:0; stroke-width: 1; stroke: #000000" x="0" y="380" width="140" height="60"/>
    <text font-size="12.8" style="fill: #000000;text-anchor:middle;font-family:sans-serif;font-style:normal;font-weight:normal" x="70" y="405.9">
      <tspan x="70" y="405.9">IfcRelAssociates</tspan>
      <tspan x="70" y="421.9">Classification</tspan>
    </text>
  </g>
  <g>
    <rect style="fill: #ffffff" x="-286.526" y="380" width="233.05" height="60"/>
    <rect style="fill: none; fill-opacity:0; stroke-width: 1; stroke: #000000" x="-286.526" y="380" width="233.05" height="60"/>
    <text font-size="12.8" style="fill: #000000;text-anchor:middle;font-family:sans-serif;font-style:normal;font-weight:normal" x="-170.001" y="405.9">
      <tspan x="-170.001" y="405.9">Object breakdown / classification</tspan>
      <tspan x="-170.001" y="421.9">(IfcClassificationReference)</tspan>
    </text>
  </g>
  <g>
    <polyline style="fill: none; fill-opacity:0; stroke-width: 2; stroke: #000000" points="-0.410156,410 -30,410 -30,410 -53.5158,410 "/>
    <text font-size="12.7998" style="fill: #000000;text-anchor:middle;font-family:monospace;font-style:normal;font-weight:normal" x="-30" y="407"></text>
    <text font-size="12.7998" style="fill: #000000;text-anchor:end;font-family:monospace;font-style:normal;font-weight:normal" x="-4.41016" y="407">*</text>
    <text font-size="12.7998" style="fill: #000000;text-anchor:start;font-family:monospace;font-style:normal;font-weight:normal" x="-49.5158" y="407">1</text>
  </g>
  <g>
    <polyline style="fill: none; fill-opacity:0; stroke-width: 2; stroke: #000000" points="220,590 180.254,590 180.254,530 140.509,530 "/>
    <text font-size="12.7998" style="fill: #000000;text-anchor:start;font-family:monospace;font-style:normal;font-weight:normal" x="182.254" y="557"></text>
    <text font-size="12.7998" style="fill: #000000;text-anchor:end;font-family:monospace;font-style:normal;font-weight:normal" x="216" y="587">1..*</text>
    <text font-size="12.7998" style="fill: #000000;text-anchor:start;font-family:monospace;font-style:normal;font-weight:normal" x="144.509" y="527">*</text>
  </g>
  <g>
    <polyline style="fill: none; fill-opacity:0; stroke-width: 2; stroke: #000000" points="220,480 180,480 180,515 140,515 "/>
    <text font-size="12.7998" style="fill: #000000;text-anchor:start;font-family:monospace;font-style:normal;font-weight:normal" x="182" y="494.5"></text>
    <text font-size="12.7998" style="fill: #000000;text-anchor:end;font-family:monospace;font-style:normal;font-weight:normal" x="216" y="477">1..*</text>
    <text font-size="12.7998" style="fill: #000000;text-anchor:start;font-family:monospace;font-style:normal;font-weight:normal" x="144" y="512">*</text>
  </g>
  <g>
    <polyline style="fill: none; fill-opacity:0; stroke-width: 2; stroke: #000000" points="140,410 180,410 180,440 220,440 "/>
    <text font-size="12.7998" style="fill: #000000;text-anchor:start;font-family:monospace;font-style:normal;font-weight:normal" x="182" y="422"></text>
    <text font-size="12.7998" style="fill: #000000;text-anchor:start;font-family:monospace;font-style:normal;font-weight:normal" x="144" y="407">*</text>
    <text font-size="12.7998" style="fill: #000000;text-anchor:end;font-family:monospace;font-style:normal;font-weight:normal" x="216" y="437">1..*</text>
  </g>
  <g>
    <polyline style="fill: none; fill-opacity:0; stroke-width: 2; stroke: #000000" points="1065,1000 1065,970 1035,970 1035,940 "/>
    <text font-size="12.7998" style="fill: #000000;text-anchor:middle;font-family:monospace;font-style:normal;font-weight:normal" x="1050" y="967"></text>
    <text font-size="12.7998" style="fill: #000000;text-anchor:start;font-family:monospace;font-style:normal;font-weight:normal" x="1069" y="996">1</text>
    <text font-size="12.7998" style="fill: #000000;text-anchor:start;font-family:monospace;font-style:normal;font-weight:normal" x="1039" y="952">*</text>
  </g>
  <g>
    <rect style="fill: #ffffff" x="-200" y="880" width="180" height="60"/>
    <rect style="fill: none; fill-opacity:0; stroke-width: 1; stroke: #000000" x="-200" y="880" width="180" height="60"/>
    <text font-size="12.8" style="fill: #000000;text-anchor:middle;font-family:sans-serif;font-style:normal;font-weight:normal" x="-110" y="905.9">
      <tspan x="-110" y="905.9">Single value</tspan>
      <tspan x="-110" y="921.9">(P_SINGLEVALUE)</tspan>
    </text>
  </g>
  <g>
    <rect style="fill: #ffffff" x="0" y="880" width="180" height="60"/>
    <rect style="fill: none; fill-opacity:0; stroke-width: 1; stroke: #000000" x="0" y="880" width="180" height="60"/>
    <text font-size="12.8" style="fill: #000000;text-anchor:middle;font-family:sans-serif;font-style:normal;font-weight:normal" x="90" y="905.9">
      <tspan x="90" y="905.9">Enumeration of values</tspan>
      <tspan x="90" y="921.9">(P_ENUMERATEDVALUE)</tspan>
    </text>
  </g>
  <g>
    <rect style="fill: #ffffff" x="1100" y="400" width="220" height="60"/>
    <rect style="fill: none; fill-opacity:0; stroke-width: 1; stroke: #000000" x="1100" y="400" width="220" height="60"/>
    <text font-size="12.8" style="fill: #000000;text-anchor:middle;font-family:sans-serif;font-style:normal;font-weight:normal" x="1210" y="425.9">
      <tspan x="1210" y="425.9">Reason</tspan>
      <tspan x="1210" y="441.9">(IfcActionRequest)</tspan>
    </text>
  </g>
  <g>
    <rect style="fill: #d8e5e5" x="880" y="400" width="160" height="60"/>
    <rect style="fill: none; fill-opacity:0; stroke-width: 1; stroke: #000000" x="880" y="400" width="160" height="60"/>
    <text font-size="12.8" style="fill: #000000;text-anchor:middle;font-family:sans-serif;font-style:normal;font-weight:normal" x="960" y="425.9">
      <tspan x="960" y="425.9">IfcRelAssigns</tspan>
      <tspan x="960" y="441.9">ToControl</tspan>
    </text>
  </g>
  <g>
    <polyline style="fill: none; fill-opacity:0; stroke-width: 2; stroke: #000000" points="1099.49,430 1098.49,430 1041.51,430 1040.51,430 "/>
    <text font-size="12.7998" style="fill: #000000;text-anchor:middle;font-family:monospace;font-style:normal;font-weight:normal" x="1070" y="427"></text>
    <text font-size="12.7998" style="fill: #000000;text-anchor:end;font-family:monospace;font-style:normal;font-weight:normal" x="1095.49" y="427">1</text>
    <text font-size="12.7998" style="fill: #000000;text-anchor:start;font-family:monospace;font-style:normal;font-weight:normal" x="1044.51" y="427">*</text>
  </g>
  <g>
    <polyline style="fill: none; fill-opacity:0; stroke-width: 2; stroke: #000000" points="740.481,390 820,390 820,430 879.498,430 "/>
    <text font-size="12.7998" style="fill: #000000;text-anchor:start;font-family:monospace;font-style:normal;font-weight:normal" x="822" y="407"></text>
    <text font-size="12.7998" style="fill: #000000;text-anchor:start;font-family:monospace;font-style:normal;font-weight:normal" x="744.481" y="387">1..*</text>
    <text font-size="12.7998" style="fill: #000000;text-anchor:end;font-family:monospace;font-style:normal;font-weight:normal" x="875.498" y="427">1..*</text>
  </g>
  <g>
    <rect style="fill: #ffffff" x="1100" y="500" width="220" height="60"/>
    <rect style="fill: none; fill-opacity:0; stroke-width: 1; stroke: #000000" x="1100" y="500" width="220" height="60"/>
    <text font-size="12.8" style="fill: #000000;text-anchor:middle;font-family:sans-serif;font-style:normal;font-weight:normal" x="1210" y="525.9">
      <tspan x="1210" y="525.9">Actor</tspan>
      <tspan x="1210" y="541.9">(IfcActor)</tspan>
    </text>
  </g>
  <g>
    <rect style="fill: #d8e5e5" x="880" y="500" width="160" height="60"/>
    <rect style="fill: none; fill-opacity:0; stroke-width: 1; stroke: #000000" x="880" y="500" width="160" height="60"/>
    <text font-size="12.8" style="fill: #000000;text-anchor:middle;font-family:sans-serif;font-style:normal;font-weight:normal" x="960" y="525.9">
      <tspan x="960" y="525.9">IfcRelAssigns</tspan>
      <tspan x="960" y="541.9">ToActor</tspan>
    </text>
  </g>
  <g>
    <polyline style="fill: none; fill-opacity:0; stroke-width: 2; stroke: #000000" points="1099.49,530 1098.49,530 1041.51,530 1040.51,530 "/>
    <text font-size="12.7998" style="fill: #000000;text-anchor:middle;font-family:monospace;font-style:normal;font-weight:normal" x="1070" y="527"></text>
    <text font-size="12.7998" style="fill: #000000;text-anchor:end;font-family:monospace;font-style:normal;font-weight:normal" x="1095.49" y="527">1</text>
    <text font-size="12.7998" style="fill: #000000;text-anchor:start;font-family:monospace;font-style:normal;font-weight:normal" x="1044.51" y="527">*</text>
  </g>
  <g>
    <polyline style="fill: none; fill-opacity:0; stroke-width: 2; stroke: #000000" points="740,390 820,390 820,530 879.498,530 "/>
    <text font-size="12.7998" style="fill: #000000;text-anchor:start;font-family:monospace;font-style:normal;font-weight:normal" x="822" y="457"></text>
    <text font-size="12.7998" style="fill: #000000;text-anchor:start;font-family:monospace;font-style:normal;font-weight:normal" x="744" y="387">1..*</text>
    <text font-size="12.7998" style="fill: #000000;text-anchor:end;font-family:monospace;font-style:normal;font-weight:normal" x="875.498" y="527">1..*</text>
  </g>
  <g>
    <rect style="fill: #ffffff" x="1180" y="600" width="140" height="60"/>
    <rect style="fill: none; fill-opacity:0; stroke-width: 1; stroke: #000000" x="1180" y="600" width="140" height="60"/>
    <text font-size="12.8" style="fill: #000000;text-anchor:middle;font-family:sans-serif;font-style:normal;font-weight:normal" x="1250" y="625.9">
      <tspan x="1250" y="625.9">Role</tspan>
      <tspan x="1250" y="641.9">(IfcActorRole)</tspan>
    </text>
  </g>
  <g>
    <rect style="fill: #ffffff" x="960" y="600" width="200" height="60"/>
    <rect style="fill: none; fill-opacity:0; stroke-width: 1; stroke: #000000" x="960" y="600" width="200" height="60"/>
    <text font-size="12.8" style="fill: #000000;text-anchor:middle;font-family:sans-serif;font-style:normal;font-weight:normal" x="1060" y="625.9">
      <tspan x="1060" y="625.9">Person and/or organization</tspan>
      <tspan x="1060" y="641.9">(IfcPerson/IfcOrganization)</tspan>
    </text>
  </g>
  <g>
    <polyline style="fill: none; fill-opacity:0; stroke-width: 2; stroke: #000000" points="1110,600 1110,580 1155,580 1155,560 "/>
    <text font-size="12.7998" style="fill: #000000;text-anchor:middle;font-family:monospace;font-style:normal;font-weight:normal" x="1132.5" y="577"></text>
    <text font-size="12.7998" style="fill: #000000;text-anchor:start;font-family:monospace;font-style:normal;font-weight:normal" x="1114" y="596">1</text>
    <text font-size="12.7998" style="fill: #000000;text-anchor:start;font-family:monospace;font-style:normal;font-weight:normal" x="1159" y="572">*</text>
  </g>
  <g>
    <polyline style="fill: none; fill-opacity:0; stroke-width: 2; stroke: #000000" points="1250,599.493 1250,580 1210,580 1210,560.507 "/>
    <text font-size="12.7998" style="fill: #000000;text-anchor:middle;font-family:monospace;font-style:normal;font-weight:normal" x="1230" y="577"></text>
    <text font-size="12.7998" style="fill: #000000;text-anchor:start;font-family:monospace;font-style:normal;font-weight:normal" x="1254" y="595.493">1</text>
    <text font-size="12.7998" style="fill: #000000;text-anchor:start;font-family:monospace;font-style:normal;font-weight:normal" x="1214" y="572.507">*</text>
  </g>
  <g>
    <rect style="fill: #ffffff" x="1100" y="300" width="220" height="60"/>
    <rect style="fill: none; fill-opacity:0; stroke-width: 1; stroke: #000000" x="1100" y="300" width="220" height="60"/>
    <text font-size="12.8" style="fill: #000000;text-anchor:middle;font-family:sans-serif;font-style:normal;font-weight:normal" x="1210" y="325.9">
      <tspan x="1210" y="325.9">Milestone</tspan>
      <tspan x="1210" y="341.9">(IfcTask, IsMilestone = true)</tspan>
    </text>
  </g>
  <g>
    <rect style="fill: #d8e5e5" x="880" y="300" width="160" height="60"/>
    <rect style="fill: none; fill-opacity:0; stroke-width: 1; stroke: #000000" x="880" y="300" width="160" height="60"/>
    <text font-size="12.8" style="fill: #000000;text-anchor:middle;font-family:sans-serif;font-style:normal;font-weight:normal" x="960" y="325.9">
      <tspan x="960" y="325.9">IfcRelAssigns</tspan>
      <tspan x="960" y="341.9">ToProcess</tspan>
    </text>
  </g>
  <g>
    <polyline style="fill: none; fill-opacity:0; stroke-width: 2; stroke: #000000" points="1099.49,330 1098.49,330 1041.51,330 1040.51,330 "/>
    <text font-size="12.7998" style="fill: #000000;text-anchor:middle;font-family:monospace;font-style:normal;font-weight:normal" x="1070" y="327"></text>
    <text font-size="12.7998" style="fill: #000000;text-anchor:end;font-family:monospace;font-style:normal;font-weight:normal" x="1095.49" y="327">1</text>
    <text font-size="12.7998" style="fill: #000000;text-anchor:start;font-family:monospace;font-style:normal;font-weight:normal" x="1044.51" y="327">*</text>
  </g>
  <g>
    <polyline style="fill: none; fill-opacity:0; stroke-width: 2; stroke: #000000" points="740,390 820,390 820,330 879.498,330 "/>
    <text font-size="12.7998" style="fill: #000000;text-anchor:start;font-family:monospace;font-style:normal;font-weight:normal" x="822" y="357"></text>
    <text font-size="12.7998" style="fill: #000000;text-anchor:start;font-family:monospace;font-style:normal;font-weight:normal" x="744" y="387">1..*</text>
    <text font-size="12.7998" style="fill: #000000;text-anchor:end;font-family:monospace;font-style:normal;font-weight:normal" x="875.498" y="327">1..*</text>
  </g>
  <line style="fill: none; fill-opacity:0; stroke-width: 2; stroke: #000000" x1="817.142" y1="820.485" x2="702.485" y2="902.04"/>
  <g>
    <rect style="fill: #d8e5e5" x="880" y="200" width="160" height="60"/>
    <rect style="fill: none; fill-opacity:0; stroke-width: 1; stroke: #000000" x="880" y="200" width="160" height="60"/>
    <text font-size="12.8" style="fill: #000000;text-anchor:middle;font-family:sans-serif;font-style:normal;font-weight:normal" x="960" y="225.9">
      <tspan x="960" y="225.9">IfcRelAssociates</tspan>
      <tspan x="960" y="241.9">Classification</tspan>
    </text>
  </g>
  <g>
    <rect style="fill: #ffffff" x="1100" y="200" width="223" height="60"/>
    <rect style="fill: none; fill-opacity:0; stroke-width: 1; stroke: #000000" x="1100" y="200" width="223" height="60"/>
    <text font-size="12.8" style="fill: #000000;text-anchor:middle;font-family:sans-serif;font-style:normal;font-weight:normal" x="1211.5" y="225.9">
      <tspan x="1211.5" y="225.9">Breakdown Item / Classification</tspan>
      <tspan x="1211.5" y="241.9">(IfcClassificationReference)</tspan>
    </text>
  </g>
  <g>
    <polyline style="fill: none; fill-opacity:0; stroke-width: 2; stroke: #000000" points="1099.49,230 1098.49,230 1041.51,230 1040.51,230 "/>
    <text font-size="12.7998" style="fill: #000000;text-anchor:middle;font-family:monospace;font-style:normal;font-weight:normal" x="1070" y="227"></text>
    <text font-size="12.7998" style="fill: #000000;text-anchor:end;font-family:monospace;font-style:normal;font-weight:normal" x="1095.49" y="227">1</text>
    <text font-size="12.7998" style="fill: #000000;text-anchor:start;font-family:monospace;font-style:normal;font-weight:normal" x="1044.51" y="227">*</text>
  </g>
  <g>
    <polyline style="fill: none; fill-opacity:0; stroke-width: 2; stroke: #000000" points="740,390 820,390 820,230 880,230 "/>
    <text font-size="12.7998" style="fill: #000000;text-anchor:start;font-family:monospace;font-style:normal;font-weight:normal" x="822" y="307"></text>
    <text font-size="12.7998" style="fill: #000000;text-anchor:start;font-family:monospace;font-style:normal;font-weight:normal" x="744" y="387">1..*</text>
    <text font-size="12.7998" style="fill: #000000;text-anchor:end;font-family:monospace;font-style:normal;font-weight:normal" x="876" y="227">1..*</text>
  </g>
  <line style="fill: none; fill-opacity:0; stroke-width: 2; stroke: #000000" x1="-110" y1="940" x2="-110" y2="960"/>
  <line style="fill: none; fill-opacity:0; stroke-width: 2; stroke: #000000" x1="90" y1="940" x2="90" y2="960"/>
  <line style="fill: none; fill-opacity:0; stroke-width: 2; stroke: #000000" x1="310" y1="940" x2="310" y2="960"/>
</svg>
