<svg xmlns="http://www.w3.org/2000/svg" width="85.883" height="47.572" viewBox="0 0 85.883 47.572">
  <g id="bim-logo" transform="translate(0 0)">
    <path id="Path_1" data-name="Path 1" d="M85.729,45.972h-5.9v-3.6h3.6v-1.2h-3.6v-2.9h5.9v-1.3h-7.5v10.3h7.5Zm-9.3-.5-1.1-1a2.813,2.813,0,0,1-2.6,1.6c-2.2,0-3.3-1.7-3.3-4.1s1.1-4,3.3-4a2.76,2.76,0,0,1,2.5,1.4l1.1-1a4.213,4.213,0,0,0-3.7-1.8c-3,0-4.9,2.3-4.9,5.4s1.8,5.4,4.9,5.4a3.943,3.943,0,0,0,3.8-1.9Zm-13.8-3.2h-3.4v-4.1h3.5c1.1,0,1.7.8,1.7,2.1A1.7,1.7,0,0,1,62.629,42.272Zm.1-5.4h-5v10.3h1.6v-3.6h3.5a3.228,3.228,0,0,0,3.4-3.3,3.279,3.279,0,0,0-3.5-3.4Zm-7,9.1h-5.9v-3.6h3.6v-1.2h-3.6v-2.9h5.9v-1.3h-7.6v10.3h7.6Zm-13,.1c-2.2,0-3.3-1.7-3.3-4.1s1.1-4,3.3-4a2.76,2.76,0,0,1,2.5,1.4l1.1-1a4.213,4.213,0,0,0-3.7-1.8c-3,0-4.9,2.3-4.9,5.4s1.8,5.4,4.9,5.4a4.32,4.32,0,0,0,3.8-2l-1.1-1a2.75,2.75,0,0,1-2.6,1.7Zm-14-7.2,5.1,8.4h1.8v-10.4h-1.6v7.9l-4.9-7.9h-2.1v10.3h1.6v-8.3Zm-8.6,7.2c-2,0-3.2-1.9-3.2-4.1,0-2.3,1.1-4,3.2-4s3.2,1.7,3.2,4C23.229,44.272,22.129,46.072,20.129,46.072Zm0-9.4c-3,0-4.8,2.3-4.8,5.4s1.8,5.5,4.8,5.5,4.9-2.4,4.9-5.5C24.929,38.972,23.129,36.672,20.129,36.672Zm-12.6,8,1.6-1.9,3.4,4.5h2l-4.3-5.7,3.8-4.6h-1.9l-4.6,5.6v-5.7h-1.6v10.3h1.6Z" fill="#fff"/>
    <path id="Path_2" data-name="Path 2" d="M85.729,21.672c0-3.8-.4-7.7-.5-11.5-.1-2.5.1-5,.1-7.6a1.193,1.193,0,0,0-.5-.9,6.057,6.057,0,0,0-4.9-.6s-.8.4-1.1.6a20.136,20.136,0,0,0-2.9,2.2,3.039,3.039,0,0,0-.5.7c-.8,1.3-1.6,2.6-2.3,4-.8,1.6-1.5,3.4-2.4,5.3-.1.3-.4.3-.5,0-.3-.8-.6-1.3-.9-2-.6-1.6-1.2-3.1-1.7-4.8-.2-.6-.4-1-.6-1.5v-.1c-.6-1.4-3.1-4.2-5.3-4.6a8.552,8.552,0,0,0-3.2-.1c-.3,0-.6.4-.7.7-.2,2.1-.3,3.8-.6,5.7a75.832,75.832,0,0,0,.2,23.3c.1.8.2,1.5.4,2.5.1.3.3.4.6.2,1.7-1.2,3-2.3,3.6-4.6l1.2-5.3c.4-1.5,1.1-2.9,1.4-4.4.2-1.1.4-2.2.5-3.4,0-.3.2-.4.3,0l3.8,9.4a1.562,1.562,0,0,0,.8.8,2.361,2.361,0,0,0,2.6-.4,10.561,10.561,0,0,0,3.1-3.2c.1-.1.8-1.1,1.6-2.3.2-.3.5-.4.6-.3a1.44,1.44,0,0,1,.2.3c1.4,2.1,1.4,5.1,2.6,7.3,1.1,2,2.1,4.3,3.6,5.9a.764.764,0,0,0,.5.2.5.5,0,0,0,.6-.5c.8-3.5.3-7.3.3-11m-53.4,1.3c-1.1.3-2.2.6-3.3.8-4.9,1-9.7,2-14.7,1.6-.3,0-.5-.1-.9-.1a.669.669,0,0,1-.6-.7c.1-1.3.2-2.6.4-3.9.1-1.1.4-2.2.6-3.3a13.819,13.819,0,0,0-.6-8.3.63.63,0,0,1,.3-.8c1.2-.4,1.8-.3,3.5.2a.517.517,0,0,1,.3.7c-.3.6-.7,1.1-1,1.7-1.1,2.1-.6,4.1.7,6a3.879,3.879,0,0,0,2.7,1.5q5.55,1.2,11.1,2.7a6.216,6.216,0,0,1,1.6.7c.3.2.5.4.5.6,0,.3-.3.5-.6.6Zm5.5-1.9a10.1,10.1,0,0,0-4.9-4.9c-1.6-.9-3.2-1.6-4.8-2.5a.428.428,0,0,1-.1-.7c1.5-1.5,1.4-3.3.6-5.1a9.58,9.58,0,0,0-5.6-5.2,49.293,49.293,0,0,0-19.4-2.6c-3,.1-4.4,2.7-3.2,5.4a2.764,2.764,0,0,0,3,1.8,47.873,47.873,0,0,1,5.2.2.669.669,0,0,1,.6.7,22.384,22.384,0,0,1,0,2.6,32.847,32.847,0,0,0-.3,12.1c.3,1.7.1,2-1.6,1.9a2.362,2.362,0,0,0-2.7,2.3,20.024,20.024,0,0,0-.4,2.4c-.2,2.1,1,3.4,3.2,3.8a6.267,6.267,0,0,0,1.6.2c4.4,0,8.8-.5,13.1-.7a11.271,11.271,0,0,0,1.8-.3c2-.5,4-.9,6-1.4a22.086,22.086,0,0,0,7.1-2.4c2-1.2,2.6-2.5,2-4.7a16.311,16.311,0,0,0-1.2-2.9Zm10.9-19.9c-1.4-.6-2.8-.2-4.2.2a.871.871,0,0,0-.6.8c-.1,1.2-.1,2.3-.2,3.4a101.232,101.232,0,0,0-.5,17.4c.2,3.1.9,6.2,1.4,9.3.2.9.5,1.3,1,1.3a1.737,1.737,0,0,0,1.1-.6,9.13,9.13,0,0,0,1.5-2.3,15.264,15.264,0,0,0,1.4-3.9c.3-2.8.4-5.7.6-8.5a8.807,8.807,0,0,1,.2-1.7c.2-2.2.6-4.3.7-6.5a41.7,41.7,0,0,0,0-5c-.1-2.4-.8-3.2-2.4-3.9Z" fill="#cd1719"/>
  </g>
</svg>
